<mxfile host="Electron" modified="2024-06-06T19:34:48.968Z" agent="Mozilla/5.0 (X11; Linux x86_64) AppleWebKit/537.36 (KHTML, like Gecko) draw.io/24.4.8 Chrome/124.0.6367.207 Electron/30.0.6 Safari/537.36" etag="c3wYU6hB5-2LAvVrB9uv" version="24.4.8" type="device">
  <diagram name="Page-1" id="sLkSnQtU2QCR2QZK1SaI">
    <mxGraphModel dx="523" dy="620" grid="1" gridSize="10" guides="1" tooltips="1" connect="1" arrows="1" fold="1" page="1" pageScale="1" pageWidth="1169" pageHeight="827" math="1" shadow="0">
      <root>
        <mxCell id="0" />
        <mxCell id="1" parent="0" />
        <mxCell id="4PF_jre6dExDxbK1LLWj-253" value="" style="rounded=0;whiteSpace=wrap;html=1;fillColor=#660066;strokeColor=#660066;" vertex="1" parent="1">
          <mxGeometry x="750" y="593" width="10" height="150" as="geometry" />
        </mxCell>
        <mxCell id="4PF_jre6dExDxbK1LLWj-1" value="" style="whiteSpace=wrap;html=1;aspect=fixed;fillColor=#779CD4;strokeColor=#779CD4;" vertex="1" parent="1">
          <mxGeometry x="80" y="83" width="30" height="30" as="geometry" />
        </mxCell>
        <mxCell id="4PF_jre6dExDxbK1LLWj-3" value="" style="whiteSpace=wrap;html=1;aspect=fixed;fillColor=#779CD4;strokeColor=#779CD4;" vertex="1" parent="1">
          <mxGeometry x="120" y="83" width="30" height="30" as="geometry" />
        </mxCell>
        <mxCell id="4PF_jre6dExDxbK1LLWj-4" value="" style="whiteSpace=wrap;html=1;aspect=fixed;fillColor=#779CD4;strokeColor=#779CD4;" vertex="1" parent="1">
          <mxGeometry x="80" y="123" width="30" height="30" as="geometry" />
        </mxCell>
        <mxCell id="4PF_jre6dExDxbK1LLWj-5" value="" style="whiteSpace=wrap;html=1;aspect=fixed;fillColor=#779CD4;strokeColor=#779CD4;" vertex="1" parent="1">
          <mxGeometry x="120" y="123" width="30" height="30" as="geometry" />
        </mxCell>
        <mxCell id="4PF_jre6dExDxbK1LLWj-6" value="" style="whiteSpace=wrap;html=1;aspect=fixed;fillColor=#779CD4;strokeColor=#779CD4;" vertex="1" parent="1">
          <mxGeometry x="80" y="163" width="30" height="30" as="geometry" />
        </mxCell>
        <mxCell id="4PF_jre6dExDxbK1LLWj-7" value="" style="whiteSpace=wrap;html=1;aspect=fixed;fillColor=#779CD4;strokeColor=#779CD4;" vertex="1" parent="1">
          <mxGeometry x="120" y="163" width="30" height="30" as="geometry" />
        </mxCell>
        <mxCell id="4PF_jre6dExDxbK1LLWj-8" value="" style="whiteSpace=wrap;html=1;aspect=fixed;fillColor=#779CD4;strokeColor=#779CD4;" vertex="1" parent="1">
          <mxGeometry x="80" y="203" width="30" height="30" as="geometry" />
        </mxCell>
        <mxCell id="4PF_jre6dExDxbK1LLWj-9" value="" style="whiteSpace=wrap;html=1;aspect=fixed;fillColor=#779CD4;strokeColor=#779CD4;" vertex="1" parent="1">
          <mxGeometry x="120" y="203" width="30" height="30" as="geometry" />
        </mxCell>
        <mxCell id="4PF_jre6dExDxbK1LLWj-10" value="" style="whiteSpace=wrap;html=1;aspect=fixed;fillColor=#779CD4;strokeColor=#779CD4;" vertex="1" parent="1">
          <mxGeometry x="80" y="253" width="30" height="30" as="geometry" />
        </mxCell>
        <mxCell id="4PF_jre6dExDxbK1LLWj-11" value="" style="whiteSpace=wrap;html=1;aspect=fixed;fillColor=#779CD4;strokeColor=#779CD4;" vertex="1" parent="1">
          <mxGeometry x="120" y="253" width="30" height="30" as="geometry" />
        </mxCell>
        <mxCell id="4PF_jre6dExDxbK1LLWj-12" value="" style="whiteSpace=wrap;html=1;aspect=fixed;fillColor=#779CD4;strokeColor=#779CD4;" vertex="1" parent="1">
          <mxGeometry x="80" y="293" width="30" height="30" as="geometry" />
        </mxCell>
        <mxCell id="4PF_jre6dExDxbK1LLWj-13" value="" style="whiteSpace=wrap;html=1;aspect=fixed;fillColor=#779CD4;strokeColor=#779CD4;" vertex="1" parent="1">
          <mxGeometry x="120" y="293" width="30" height="30" as="geometry" />
        </mxCell>
        <mxCell id="4PF_jre6dExDxbK1LLWj-14" value="" style="whiteSpace=wrap;html=1;aspect=fixed;fillColor=#779CD4;strokeColor=#779CD4;" vertex="1" parent="1">
          <mxGeometry x="80" y="333" width="30" height="30" as="geometry" />
        </mxCell>
        <mxCell id="4PF_jre6dExDxbK1LLWj-15" value="" style="whiteSpace=wrap;html=1;aspect=fixed;fillColor=#779CD4;strokeColor=#779CD4;" vertex="1" parent="1">
          <mxGeometry x="120" y="333" width="30" height="30" as="geometry" />
        </mxCell>
        <mxCell id="4PF_jre6dExDxbK1LLWj-16" value="" style="whiteSpace=wrap;html=1;aspect=fixed;fillColor=#779CD4;strokeColor=#779CD4;" vertex="1" parent="1">
          <mxGeometry x="80" y="373" width="30" height="30" as="geometry" />
        </mxCell>
        <mxCell id="4PF_jre6dExDxbK1LLWj-17" value="" style="whiteSpace=wrap;html=1;aspect=fixed;fillColor=#779CD4;strokeColor=#779CD4;" vertex="1" parent="1">
          <mxGeometry x="120" y="373" width="30" height="30" as="geometry" />
        </mxCell>
        <mxCell id="4PF_jre6dExDxbK1LLWj-18" value="" style="whiteSpace=wrap;html=1;aspect=fixed;fillColor=#779CD4;strokeColor=#779CD4;" vertex="1" parent="1">
          <mxGeometry x="80" y="423" width="30" height="30" as="geometry" />
        </mxCell>
        <mxCell id="4PF_jre6dExDxbK1LLWj-19" value="" style="whiteSpace=wrap;html=1;aspect=fixed;fillColor=#779CD4;strokeColor=#779CD4;" vertex="1" parent="1">
          <mxGeometry x="120" y="423" width="30" height="30" as="geometry" />
        </mxCell>
        <mxCell id="4PF_jre6dExDxbK1LLWj-20" value="" style="whiteSpace=wrap;html=1;aspect=fixed;fillColor=#779CD4;strokeColor=#779CD4;" vertex="1" parent="1">
          <mxGeometry x="80" y="463" width="30" height="30" as="geometry" />
        </mxCell>
        <mxCell id="4PF_jre6dExDxbK1LLWj-21" value="" style="whiteSpace=wrap;html=1;aspect=fixed;fillColor=#779CD4;strokeColor=#779CD4;" vertex="1" parent="1">
          <mxGeometry x="120" y="463" width="30" height="30" as="geometry" />
        </mxCell>
        <mxCell id="4PF_jre6dExDxbK1LLWj-22" value="" style="whiteSpace=wrap;html=1;aspect=fixed;fillColor=#779CD4;strokeColor=#779CD4;" vertex="1" parent="1">
          <mxGeometry x="80" y="503" width="30" height="30" as="geometry" />
        </mxCell>
        <mxCell id="4PF_jre6dExDxbK1LLWj-23" value="" style="whiteSpace=wrap;html=1;aspect=fixed;fillColor=#779CD4;strokeColor=#779CD4;" vertex="1" parent="1">
          <mxGeometry x="120" y="503" width="30" height="30" as="geometry" />
        </mxCell>
        <mxCell id="4PF_jre6dExDxbK1LLWj-24" value="" style="whiteSpace=wrap;html=1;aspect=fixed;fillColor=#779CD4;strokeColor=#779CD4;" vertex="1" parent="1">
          <mxGeometry x="80" y="543" width="30" height="30" as="geometry" />
        </mxCell>
        <mxCell id="4PF_jre6dExDxbK1LLWj-25" value="" style="whiteSpace=wrap;html=1;aspect=fixed;fillColor=#779CD4;strokeColor=#779CD4;" vertex="1" parent="1">
          <mxGeometry x="120" y="543" width="30" height="30" as="geometry" />
        </mxCell>
        <mxCell id="4PF_jre6dExDxbK1LLWj-26" value="" style="whiteSpace=wrap;html=1;aspect=fixed;fillColor=#779CD4;strokeColor=#779CD4;" vertex="1" parent="1">
          <mxGeometry x="80" y="593" width="30" height="30" as="geometry" />
        </mxCell>
        <mxCell id="4PF_jre6dExDxbK1LLWj-27" value="" style="whiteSpace=wrap;html=1;aspect=fixed;fillColor=#779CD4;strokeColor=#779CD4;" vertex="1" parent="1">
          <mxGeometry x="120" y="593" width="30" height="30" as="geometry" />
        </mxCell>
        <mxCell id="4PF_jre6dExDxbK1LLWj-28" value="" style="whiteSpace=wrap;html=1;aspect=fixed;fillColor=#779CD4;strokeColor=#779CD4;" vertex="1" parent="1">
          <mxGeometry x="80" y="633" width="30" height="30" as="geometry" />
        </mxCell>
        <mxCell id="4PF_jre6dExDxbK1LLWj-29" value="" style="whiteSpace=wrap;html=1;aspect=fixed;fillColor=#779CD4;strokeColor=#779CD4;" vertex="1" parent="1">
          <mxGeometry x="120" y="633" width="30" height="30" as="geometry" />
        </mxCell>
        <mxCell id="4PF_jre6dExDxbK1LLWj-30" value="" style="whiteSpace=wrap;html=1;aspect=fixed;fillColor=#779CD4;strokeColor=#779CD4;" vertex="1" parent="1">
          <mxGeometry x="80" y="673" width="30" height="30" as="geometry" />
        </mxCell>
        <mxCell id="4PF_jre6dExDxbK1LLWj-31" value="" style="whiteSpace=wrap;html=1;aspect=fixed;fillColor=#779CD4;strokeColor=#779CD4;" vertex="1" parent="1">
          <mxGeometry x="120" y="673" width="30" height="30" as="geometry" />
        </mxCell>
        <mxCell id="4PF_jre6dExDxbK1LLWj-32" value="" style="whiteSpace=wrap;html=1;aspect=fixed;fillColor=#779CD4;strokeColor=#779CD4;" vertex="1" parent="1">
          <mxGeometry x="80" y="713" width="30" height="30" as="geometry" />
        </mxCell>
        <mxCell id="4PF_jre6dExDxbK1LLWj-33" value="" style="whiteSpace=wrap;html=1;aspect=fixed;fillColor=#779CD4;strokeColor=#779CD4;" vertex="1" parent="1">
          <mxGeometry x="120" y="713" width="30" height="30" as="geometry" />
        </mxCell>
        <mxCell id="4PF_jre6dExDxbK1LLWj-34" value="" style="rounded=0;whiteSpace=wrap;html=1;fillColor=#990099;strokeColor=#660066;" vertex="1" parent="1">
          <mxGeometry x="160" y="83" width="10" height="150" as="geometry" />
        </mxCell>
        <mxCell id="4PF_jre6dExDxbK1LLWj-35" value="" style="rounded=0;whiteSpace=wrap;html=1;fillColor=#990099;strokeColor=#660066;" vertex="1" parent="1">
          <mxGeometry x="160" y="253" width="10" height="150" as="geometry" />
        </mxCell>
        <mxCell id="4PF_jre6dExDxbK1LLWj-36" value="" style="rounded=0;whiteSpace=wrap;html=1;fillColor=#990099;strokeColor=#660066;" vertex="1" parent="1">
          <mxGeometry x="160" y="423" width="10" height="150" as="geometry" />
        </mxCell>
        <mxCell id="4PF_jre6dExDxbK1LLWj-37" value="" style="rounded=0;whiteSpace=wrap;html=1;fillColor=#990099;strokeColor=#660066;" vertex="1" parent="1">
          <mxGeometry x="160" y="593" width="10" height="150" as="geometry" />
        </mxCell>
        <mxCell id="4PF_jre6dExDxbK1LLWj-38" value="" style="rounded=0;whiteSpace=wrap;html=1;fillColor=#A9C4EB;strokeColor=#A9C4EB;" vertex="1" parent="1">
          <mxGeometry x="170" y="83" width="10" height="150" as="geometry" />
        </mxCell>
        <mxCell id="4PF_jre6dExDxbK1LLWj-39" value="" style="rounded=0;whiteSpace=wrap;html=1;fillColor=#A9C4EB;strokeColor=#A9C4EB;" vertex="1" parent="1">
          <mxGeometry x="170" y="253" width="10" height="150" as="geometry" />
        </mxCell>
        <mxCell id="4PF_jre6dExDxbK1LLWj-40" value="" style="rounded=0;whiteSpace=wrap;html=1;fillColor=#A9C4EB;strokeColor=#A9C4EB;" vertex="1" parent="1">
          <mxGeometry x="170" y="423" width="10" height="150" as="geometry" />
        </mxCell>
        <mxCell id="4PF_jre6dExDxbK1LLWj-41" value="" style="rounded=0;whiteSpace=wrap;html=1;fillColor=#A9C4EB;strokeColor=#A9C4EB;" vertex="1" parent="1">
          <mxGeometry x="170" y="593" width="10" height="150" as="geometry" />
        </mxCell>
        <mxCell id="4PF_jre6dExDxbK1LLWj-42" value="" style="whiteSpace=wrap;html=1;aspect=fixed;fillColor=#779CD4;strokeColor=#779CD4;" vertex="1" parent="1">
          <mxGeometry x="190" y="83" width="30" height="30" as="geometry" />
        </mxCell>
        <mxCell id="4PF_jre6dExDxbK1LLWj-43" value="" style="whiteSpace=wrap;html=1;aspect=fixed;fillColor=#779CD4;strokeColor=#779CD4;" vertex="1" parent="1">
          <mxGeometry x="230" y="83" width="30" height="30" as="geometry" />
        </mxCell>
        <mxCell id="4PF_jre6dExDxbK1LLWj-44" value="" style="whiteSpace=wrap;html=1;aspect=fixed;fillColor=#779CD4;strokeColor=#779CD4;" vertex="1" parent="1">
          <mxGeometry x="190" y="123" width="30" height="30" as="geometry" />
        </mxCell>
        <mxCell id="4PF_jre6dExDxbK1LLWj-45" value="" style="whiteSpace=wrap;html=1;aspect=fixed;fillColor=#779CD4;strokeColor=#779CD4;" vertex="1" parent="1">
          <mxGeometry x="230" y="123" width="30" height="30" as="geometry" />
        </mxCell>
        <mxCell id="4PF_jre6dExDxbK1LLWj-46" value="" style="whiteSpace=wrap;html=1;aspect=fixed;fillColor=#779CD4;strokeColor=#779CD4;" vertex="1" parent="1">
          <mxGeometry x="190" y="163" width="30" height="30" as="geometry" />
        </mxCell>
        <mxCell id="4PF_jre6dExDxbK1LLWj-47" value="" style="whiteSpace=wrap;html=1;aspect=fixed;fillColor=#779CD4;strokeColor=#779CD4;" vertex="1" parent="1">
          <mxGeometry x="230" y="163" width="30" height="30" as="geometry" />
        </mxCell>
        <mxCell id="4PF_jre6dExDxbK1LLWj-48" value="" style="whiteSpace=wrap;html=1;aspect=fixed;fillColor=#779CD4;strokeColor=#779CD4;" vertex="1" parent="1">
          <mxGeometry x="190" y="203" width="30" height="30" as="geometry" />
        </mxCell>
        <mxCell id="4PF_jre6dExDxbK1LLWj-49" value="" style="whiteSpace=wrap;html=1;aspect=fixed;fillColor=#779CD4;strokeColor=#779CD4;" vertex="1" parent="1">
          <mxGeometry x="230" y="203" width="30" height="30" as="geometry" />
        </mxCell>
        <mxCell id="4PF_jre6dExDxbK1LLWj-50" value="" style="whiteSpace=wrap;html=1;aspect=fixed;fillColor=#779CD4;strokeColor=#779CD4;" vertex="1" parent="1">
          <mxGeometry x="190" y="253" width="30" height="30" as="geometry" />
        </mxCell>
        <mxCell id="4PF_jre6dExDxbK1LLWj-51" value="" style="whiteSpace=wrap;html=1;aspect=fixed;fillColor=#779CD4;strokeColor=#779CD4;" vertex="1" parent="1">
          <mxGeometry x="230" y="253" width="30" height="30" as="geometry" />
        </mxCell>
        <mxCell id="4PF_jre6dExDxbK1LLWj-52" value="" style="whiteSpace=wrap;html=1;aspect=fixed;fillColor=#779CD4;strokeColor=#779CD4;" vertex="1" parent="1">
          <mxGeometry x="190" y="293" width="30" height="30" as="geometry" />
        </mxCell>
        <mxCell id="4PF_jre6dExDxbK1LLWj-53" value="" style="whiteSpace=wrap;html=1;aspect=fixed;fillColor=#779CD4;strokeColor=#779CD4;" vertex="1" parent="1">
          <mxGeometry x="230" y="293" width="30" height="30" as="geometry" />
        </mxCell>
        <mxCell id="4PF_jre6dExDxbK1LLWj-54" value="" style="whiteSpace=wrap;html=1;aspect=fixed;fillColor=#779CD4;strokeColor=#779CD4;" vertex="1" parent="1">
          <mxGeometry x="190" y="333" width="30" height="30" as="geometry" />
        </mxCell>
        <mxCell id="4PF_jre6dExDxbK1LLWj-55" value="" style="whiteSpace=wrap;html=1;aspect=fixed;fillColor=#779CD4;strokeColor=#779CD4;" vertex="1" parent="1">
          <mxGeometry x="230" y="333" width="30" height="30" as="geometry" />
        </mxCell>
        <mxCell id="4PF_jre6dExDxbK1LLWj-56" value="" style="whiteSpace=wrap;html=1;aspect=fixed;fillColor=#779CD4;strokeColor=#779CD4;" vertex="1" parent="1">
          <mxGeometry x="190" y="373" width="30" height="30" as="geometry" />
        </mxCell>
        <mxCell id="4PF_jre6dExDxbK1LLWj-57" value="" style="whiteSpace=wrap;html=1;aspect=fixed;fillColor=#779CD4;strokeColor=#779CD4;" vertex="1" parent="1">
          <mxGeometry x="230" y="373" width="30" height="30" as="geometry" />
        </mxCell>
        <mxCell id="4PF_jre6dExDxbK1LLWj-58" value="" style="whiteSpace=wrap;html=1;aspect=fixed;fillColor=#779CD4;strokeColor=#779CD4;" vertex="1" parent="1">
          <mxGeometry x="190" y="423" width="30" height="30" as="geometry" />
        </mxCell>
        <mxCell id="4PF_jre6dExDxbK1LLWj-59" value="" style="whiteSpace=wrap;html=1;aspect=fixed;fillColor=#779CD4;strokeColor=#779CD4;" vertex="1" parent="1">
          <mxGeometry x="230" y="423" width="30" height="30" as="geometry" />
        </mxCell>
        <mxCell id="4PF_jre6dExDxbK1LLWj-60" value="" style="whiteSpace=wrap;html=1;aspect=fixed;fillColor=#779CD4;strokeColor=#779CD4;" vertex="1" parent="1">
          <mxGeometry x="190" y="463" width="30" height="30" as="geometry" />
        </mxCell>
        <mxCell id="4PF_jre6dExDxbK1LLWj-61" value="" style="whiteSpace=wrap;html=1;aspect=fixed;fillColor=#779CD4;strokeColor=#779CD4;" vertex="1" parent="1">
          <mxGeometry x="230" y="463" width="30" height="30" as="geometry" />
        </mxCell>
        <mxCell id="4PF_jre6dExDxbK1LLWj-62" value="" style="whiteSpace=wrap;html=1;aspect=fixed;fillColor=#779CD4;strokeColor=#779CD4;" vertex="1" parent="1">
          <mxGeometry x="190" y="503" width="30" height="30" as="geometry" />
        </mxCell>
        <mxCell id="4PF_jre6dExDxbK1LLWj-63" value="" style="whiteSpace=wrap;html=1;aspect=fixed;fillColor=#779CD4;strokeColor=#779CD4;" vertex="1" parent="1">
          <mxGeometry x="230" y="503" width="30" height="30" as="geometry" />
        </mxCell>
        <mxCell id="4PF_jre6dExDxbK1LLWj-64" value="" style="whiteSpace=wrap;html=1;aspect=fixed;fillColor=#779CD4;strokeColor=#779CD4;" vertex="1" parent="1">
          <mxGeometry x="190" y="543" width="30" height="30" as="geometry" />
        </mxCell>
        <mxCell id="4PF_jre6dExDxbK1LLWj-65" value="" style="whiteSpace=wrap;html=1;aspect=fixed;fillColor=#779CD4;strokeColor=#779CD4;" vertex="1" parent="1">
          <mxGeometry x="230" y="543" width="30" height="30" as="geometry" />
        </mxCell>
        <mxCell id="4PF_jre6dExDxbK1LLWj-66" value="" style="whiteSpace=wrap;html=1;aspect=fixed;fillColor=#779CD4;strokeColor=#779CD4;" vertex="1" parent="1">
          <mxGeometry x="190" y="593" width="30" height="30" as="geometry" />
        </mxCell>
        <mxCell id="4PF_jre6dExDxbK1LLWj-67" value="" style="whiteSpace=wrap;html=1;aspect=fixed;fillColor=#779CD4;strokeColor=#779CD4;" vertex="1" parent="1">
          <mxGeometry x="230" y="593" width="30" height="30" as="geometry" />
        </mxCell>
        <mxCell id="4PF_jre6dExDxbK1LLWj-68" value="" style="whiteSpace=wrap;html=1;aspect=fixed;fillColor=#779CD4;strokeColor=#779CD4;" vertex="1" parent="1">
          <mxGeometry x="190" y="633" width="30" height="30" as="geometry" />
        </mxCell>
        <mxCell id="4PF_jre6dExDxbK1LLWj-69" value="" style="whiteSpace=wrap;html=1;aspect=fixed;fillColor=#779CD4;strokeColor=#779CD4;" vertex="1" parent="1">
          <mxGeometry x="230" y="633" width="30" height="30" as="geometry" />
        </mxCell>
        <mxCell id="4PF_jre6dExDxbK1LLWj-70" value="" style="whiteSpace=wrap;html=1;aspect=fixed;fillColor=#779CD4;strokeColor=#779CD4;" vertex="1" parent="1">
          <mxGeometry x="190" y="673" width="30" height="30" as="geometry" />
        </mxCell>
        <mxCell id="4PF_jre6dExDxbK1LLWj-71" value="" style="whiteSpace=wrap;html=1;aspect=fixed;fillColor=#779CD4;strokeColor=#779CD4;" vertex="1" parent="1">
          <mxGeometry x="230" y="673" width="30" height="30" as="geometry" />
        </mxCell>
        <mxCell id="4PF_jre6dExDxbK1LLWj-72" value="" style="whiteSpace=wrap;html=1;aspect=fixed;fillColor=#779CD4;strokeColor=#779CD4;" vertex="1" parent="1">
          <mxGeometry x="190" y="713" width="30" height="30" as="geometry" />
        </mxCell>
        <mxCell id="4PF_jre6dExDxbK1LLWj-73" value="" style="whiteSpace=wrap;html=1;aspect=fixed;fillColor=#779CD4;strokeColor=#779CD4;" vertex="1" parent="1">
          <mxGeometry x="230" y="713" width="30" height="30" as="geometry" />
        </mxCell>
        <mxCell id="4PF_jre6dExDxbK1LLWj-74" value="" style="whiteSpace=wrap;html=1;aspect=fixed;fillColor=#779CD4;strokeColor=#779CD4;" vertex="1" parent="1">
          <mxGeometry x="270" y="83" width="30" height="30" as="geometry" />
        </mxCell>
        <mxCell id="4PF_jre6dExDxbK1LLWj-75" value="" style="whiteSpace=wrap;html=1;aspect=fixed;fillColor=#779CD4;strokeColor=#779CD4;" vertex="1" parent="1">
          <mxGeometry x="310" y="83" width="30" height="30" as="geometry" />
        </mxCell>
        <mxCell id="4PF_jre6dExDxbK1LLWj-76" value="" style="whiteSpace=wrap;html=1;aspect=fixed;fillColor=#779CD4;strokeColor=#779CD4;" vertex="1" parent="1">
          <mxGeometry x="270" y="123" width="30" height="30" as="geometry" />
        </mxCell>
        <mxCell id="4PF_jre6dExDxbK1LLWj-77" value="" style="whiteSpace=wrap;html=1;aspect=fixed;fillColor=#779CD4;strokeColor=#779CD4;" vertex="1" parent="1">
          <mxGeometry x="310" y="123" width="30" height="30" as="geometry" />
        </mxCell>
        <mxCell id="4PF_jre6dExDxbK1LLWj-78" value="" style="whiteSpace=wrap;html=1;aspect=fixed;fillColor=#779CD4;strokeColor=#779CD4;" vertex="1" parent="1">
          <mxGeometry x="270" y="163" width="30" height="30" as="geometry" />
        </mxCell>
        <mxCell id="4PF_jre6dExDxbK1LLWj-79" value="" style="whiteSpace=wrap;html=1;aspect=fixed;fillColor=#779CD4;strokeColor=#779CD4;" vertex="1" parent="1">
          <mxGeometry x="310" y="163" width="30" height="30" as="geometry" />
        </mxCell>
        <mxCell id="4PF_jre6dExDxbK1LLWj-80" value="" style="whiteSpace=wrap;html=1;aspect=fixed;fillColor=#779CD4;strokeColor=#779CD4;" vertex="1" parent="1">
          <mxGeometry x="270" y="203" width="30" height="30" as="geometry" />
        </mxCell>
        <mxCell id="4PF_jre6dExDxbK1LLWj-81" value="" style="whiteSpace=wrap;html=1;aspect=fixed;fillColor=#779CD4;strokeColor=#779CD4;" vertex="1" parent="1">
          <mxGeometry x="310" y="203" width="30" height="30" as="geometry" />
        </mxCell>
        <mxCell id="4PF_jre6dExDxbK1LLWj-82" value="" style="whiteSpace=wrap;html=1;aspect=fixed;fillColor=#779CD4;strokeColor=#779CD4;" vertex="1" parent="1">
          <mxGeometry x="270" y="253" width="30" height="30" as="geometry" />
        </mxCell>
        <mxCell id="4PF_jre6dExDxbK1LLWj-83" value="" style="whiteSpace=wrap;html=1;aspect=fixed;fillColor=#779CD4;strokeColor=#779CD4;" vertex="1" parent="1">
          <mxGeometry x="310" y="253" width="30" height="30" as="geometry" />
        </mxCell>
        <mxCell id="4PF_jre6dExDxbK1LLWj-84" value="" style="whiteSpace=wrap;html=1;aspect=fixed;fillColor=#779CD4;strokeColor=#779CD4;" vertex="1" parent="1">
          <mxGeometry x="270" y="293" width="30" height="30" as="geometry" />
        </mxCell>
        <mxCell id="4PF_jre6dExDxbK1LLWj-85" value="" style="whiteSpace=wrap;html=1;aspect=fixed;fillColor=#779CD4;strokeColor=#779CD4;" vertex="1" parent="1">
          <mxGeometry x="310" y="293" width="30" height="30" as="geometry" />
        </mxCell>
        <mxCell id="4PF_jre6dExDxbK1LLWj-86" value="" style="whiteSpace=wrap;html=1;aspect=fixed;fillColor=#779CD4;strokeColor=#779CD4;" vertex="1" parent="1">
          <mxGeometry x="270" y="333" width="30" height="30" as="geometry" />
        </mxCell>
        <mxCell id="4PF_jre6dExDxbK1LLWj-87" value="" style="whiteSpace=wrap;html=1;aspect=fixed;fillColor=#779CD4;strokeColor=#779CD4;" vertex="1" parent="1">
          <mxGeometry x="310" y="333" width="30" height="30" as="geometry" />
        </mxCell>
        <mxCell id="4PF_jre6dExDxbK1LLWj-88" value="" style="whiteSpace=wrap;html=1;aspect=fixed;fillColor=#779CD4;strokeColor=#779CD4;" vertex="1" parent="1">
          <mxGeometry x="270" y="373" width="30" height="30" as="geometry" />
        </mxCell>
        <mxCell id="4PF_jre6dExDxbK1LLWj-89" value="" style="whiteSpace=wrap;html=1;aspect=fixed;fillColor=#779CD4;strokeColor=#779CD4;" vertex="1" parent="1">
          <mxGeometry x="310" y="373" width="30" height="30" as="geometry" />
        </mxCell>
        <mxCell id="4PF_jre6dExDxbK1LLWj-90" value="" style="whiteSpace=wrap;html=1;aspect=fixed;fillColor=#779CD4;strokeColor=#779CD4;" vertex="1" parent="1">
          <mxGeometry x="270" y="423" width="30" height="30" as="geometry" />
        </mxCell>
        <mxCell id="4PF_jre6dExDxbK1LLWj-91" value="" style="whiteSpace=wrap;html=1;aspect=fixed;fillColor=#779CD4;strokeColor=#779CD4;" vertex="1" parent="1">
          <mxGeometry x="310" y="423" width="30" height="30" as="geometry" />
        </mxCell>
        <mxCell id="4PF_jre6dExDxbK1LLWj-92" value="" style="whiteSpace=wrap;html=1;aspect=fixed;fillColor=#779CD4;strokeColor=#779CD4;" vertex="1" parent="1">
          <mxGeometry x="270" y="463" width="30" height="30" as="geometry" />
        </mxCell>
        <mxCell id="4PF_jre6dExDxbK1LLWj-93" value="" style="whiteSpace=wrap;html=1;aspect=fixed;fillColor=#779CD4;strokeColor=#779CD4;" vertex="1" parent="1">
          <mxGeometry x="310" y="463" width="30" height="30" as="geometry" />
        </mxCell>
        <mxCell id="4PF_jre6dExDxbK1LLWj-94" value="" style="whiteSpace=wrap;html=1;aspect=fixed;fillColor=#779CD4;strokeColor=#779CD4;" vertex="1" parent="1">
          <mxGeometry x="270" y="503" width="30" height="30" as="geometry" />
        </mxCell>
        <mxCell id="4PF_jre6dExDxbK1LLWj-95" value="" style="whiteSpace=wrap;html=1;aspect=fixed;fillColor=#779CD4;strokeColor=#779CD4;" vertex="1" parent="1">
          <mxGeometry x="310" y="503" width="30" height="30" as="geometry" />
        </mxCell>
        <mxCell id="4PF_jre6dExDxbK1LLWj-96" value="" style="whiteSpace=wrap;html=1;aspect=fixed;fillColor=#779CD4;strokeColor=#779CD4;" vertex="1" parent="1">
          <mxGeometry x="270" y="543" width="30" height="30" as="geometry" />
        </mxCell>
        <mxCell id="4PF_jre6dExDxbK1LLWj-97" value="" style="whiteSpace=wrap;html=1;aspect=fixed;fillColor=#779CD4;strokeColor=#779CD4;" vertex="1" parent="1">
          <mxGeometry x="310" y="543" width="30" height="30" as="geometry" />
        </mxCell>
        <mxCell id="4PF_jre6dExDxbK1LLWj-98" value="" style="whiteSpace=wrap;html=1;aspect=fixed;fillColor=#779CD4;strokeColor=#779CD4;" vertex="1" parent="1">
          <mxGeometry x="270" y="593" width="30" height="30" as="geometry" />
        </mxCell>
        <mxCell id="4PF_jre6dExDxbK1LLWj-99" value="" style="whiteSpace=wrap;html=1;aspect=fixed;fillColor=#779CD4;strokeColor=#779CD4;" vertex="1" parent="1">
          <mxGeometry x="310" y="593" width="30" height="30" as="geometry" />
        </mxCell>
        <mxCell id="4PF_jre6dExDxbK1LLWj-100" value="" style="whiteSpace=wrap;html=1;aspect=fixed;fillColor=#779CD4;strokeColor=#779CD4;" vertex="1" parent="1">
          <mxGeometry x="270" y="633" width="30" height="30" as="geometry" />
        </mxCell>
        <mxCell id="4PF_jre6dExDxbK1LLWj-101" value="" style="whiteSpace=wrap;html=1;aspect=fixed;fillColor=#779CD4;strokeColor=#779CD4;" vertex="1" parent="1">
          <mxGeometry x="310" y="633" width="30" height="30" as="geometry" />
        </mxCell>
        <mxCell id="4PF_jre6dExDxbK1LLWj-102" value="" style="whiteSpace=wrap;html=1;aspect=fixed;fillColor=#779CD4;strokeColor=#779CD4;" vertex="1" parent="1">
          <mxGeometry x="270" y="673" width="30" height="30" as="geometry" />
        </mxCell>
        <mxCell id="4PF_jre6dExDxbK1LLWj-103" value="" style="whiteSpace=wrap;html=1;aspect=fixed;fillColor=#779CD4;strokeColor=#779CD4;" vertex="1" parent="1">
          <mxGeometry x="310" y="673" width="30" height="30" as="geometry" />
        </mxCell>
        <mxCell id="4PF_jre6dExDxbK1LLWj-104" value="" style="whiteSpace=wrap;html=1;aspect=fixed;fillColor=#779CD4;strokeColor=#779CD4;" vertex="1" parent="1">
          <mxGeometry x="270" y="713" width="30" height="30" as="geometry" />
        </mxCell>
        <mxCell id="4PF_jre6dExDxbK1LLWj-105" value="" style="whiteSpace=wrap;html=1;aspect=fixed;fillColor=#779CD4;strokeColor=#779CD4;" vertex="1" parent="1">
          <mxGeometry x="310" y="713" width="30" height="30" as="geometry" />
        </mxCell>
        <mxCell id="4PF_jre6dExDxbK1LLWj-106" value="" style="rounded=0;whiteSpace=wrap;html=1;fillColor=#990099;strokeColor=#660066;" vertex="1" parent="1">
          <mxGeometry x="350" y="83" width="10" height="150" as="geometry" />
        </mxCell>
        <mxCell id="4PF_jre6dExDxbK1LLWj-107" value="" style="rounded=0;whiteSpace=wrap;html=1;fillColor=#990099;strokeColor=#660066;" vertex="1" parent="1">
          <mxGeometry x="350" y="253" width="10" height="150" as="geometry" />
        </mxCell>
        <mxCell id="4PF_jre6dExDxbK1LLWj-108" value="" style="rounded=0;whiteSpace=wrap;html=1;fillColor=#990099;strokeColor=#660066;" vertex="1" parent="1">
          <mxGeometry x="350" y="423" width="10" height="150" as="geometry" />
        </mxCell>
        <mxCell id="4PF_jre6dExDxbK1LLWj-109" value="" style="rounded=0;whiteSpace=wrap;html=1;fillColor=#990099;strokeColor=#660066;" vertex="1" parent="1">
          <mxGeometry x="350" y="593" width="10" height="150" as="geometry" />
        </mxCell>
        <mxCell id="4PF_jre6dExDxbK1LLWj-110" value="" style="rounded=0;whiteSpace=wrap;html=1;fillColor=#A9C4EB;strokeColor=#A9C4EB;" vertex="1" parent="1">
          <mxGeometry x="360" y="83" width="10" height="150" as="geometry" />
        </mxCell>
        <mxCell id="4PF_jre6dExDxbK1LLWj-111" value="" style="rounded=0;whiteSpace=wrap;html=1;fillColor=#A9C4EB;strokeColor=#A9C4EB;" vertex="1" parent="1">
          <mxGeometry x="360" y="253" width="10" height="150" as="geometry" />
        </mxCell>
        <mxCell id="4PF_jre6dExDxbK1LLWj-112" value="" style="rounded=0;whiteSpace=wrap;html=1;fillColor=#A9C4EB;strokeColor=#A9C4EB;" vertex="1" parent="1">
          <mxGeometry x="360" y="423" width="10" height="150" as="geometry" />
        </mxCell>
        <mxCell id="4PF_jre6dExDxbK1LLWj-113" value="" style="rounded=0;whiteSpace=wrap;html=1;fillColor=#A9C4EB;strokeColor=#A9C4EB;" vertex="1" parent="1">
          <mxGeometry x="360" y="593" width="10" height="150" as="geometry" />
        </mxCell>
        <mxCell id="4PF_jre6dExDxbK1LLWj-114" value="" style="whiteSpace=wrap;html=1;aspect=fixed;fillColor=#779CD4;strokeColor=#779CD4;" vertex="1" parent="1">
          <mxGeometry x="380" y="83" width="30" height="30" as="geometry" />
        </mxCell>
        <mxCell id="4PF_jre6dExDxbK1LLWj-115" value="" style="whiteSpace=wrap;html=1;aspect=fixed;fillColor=#779CD4;strokeColor=#779CD4;" vertex="1" parent="1">
          <mxGeometry x="420" y="83" width="30" height="30" as="geometry" />
        </mxCell>
        <mxCell id="4PF_jre6dExDxbK1LLWj-116" value="" style="whiteSpace=wrap;html=1;aspect=fixed;fillColor=#779CD4;strokeColor=#779CD4;" vertex="1" parent="1">
          <mxGeometry x="380" y="123" width="30" height="30" as="geometry" />
        </mxCell>
        <mxCell id="4PF_jre6dExDxbK1LLWj-117" value="" style="whiteSpace=wrap;html=1;aspect=fixed;fillColor=#779CD4;strokeColor=#779CD4;" vertex="1" parent="1">
          <mxGeometry x="420" y="123" width="30" height="30" as="geometry" />
        </mxCell>
        <mxCell id="4PF_jre6dExDxbK1LLWj-118" value="" style="whiteSpace=wrap;html=1;aspect=fixed;fillColor=#779CD4;strokeColor=#779CD4;" vertex="1" parent="1">
          <mxGeometry x="380" y="163" width="30" height="30" as="geometry" />
        </mxCell>
        <mxCell id="4PF_jre6dExDxbK1LLWj-119" value="" style="whiteSpace=wrap;html=1;aspect=fixed;fillColor=#779CD4;strokeColor=#779CD4;" vertex="1" parent="1">
          <mxGeometry x="420" y="163" width="30" height="30" as="geometry" />
        </mxCell>
        <mxCell id="4PF_jre6dExDxbK1LLWj-120" value="" style="whiteSpace=wrap;html=1;aspect=fixed;fillColor=#779CD4;strokeColor=#779CD4;" vertex="1" parent="1">
          <mxGeometry x="380" y="203" width="30" height="30" as="geometry" />
        </mxCell>
        <mxCell id="4PF_jre6dExDxbK1LLWj-121" value="" style="whiteSpace=wrap;html=1;aspect=fixed;fillColor=#779CD4;strokeColor=#779CD4;" vertex="1" parent="1">
          <mxGeometry x="420" y="203" width="30" height="30" as="geometry" />
        </mxCell>
        <mxCell id="4PF_jre6dExDxbK1LLWj-122" value="" style="whiteSpace=wrap;html=1;aspect=fixed;fillColor=#779CD4;strokeColor=#779CD4;" vertex="1" parent="1">
          <mxGeometry x="380" y="253" width="30" height="30" as="geometry" />
        </mxCell>
        <mxCell id="4PF_jre6dExDxbK1LLWj-123" value="" style="whiteSpace=wrap;html=1;aspect=fixed;fillColor=#779CD4;strokeColor=#779CD4;" vertex="1" parent="1">
          <mxGeometry x="420" y="253" width="30" height="30" as="geometry" />
        </mxCell>
        <mxCell id="4PF_jre6dExDxbK1LLWj-124" value="" style="whiteSpace=wrap;html=1;aspect=fixed;fillColor=#779CD4;strokeColor=#779CD4;" vertex="1" parent="1">
          <mxGeometry x="380" y="293" width="30" height="30" as="geometry" />
        </mxCell>
        <mxCell id="4PF_jre6dExDxbK1LLWj-125" value="" style="whiteSpace=wrap;html=1;aspect=fixed;fillColor=#779CD4;strokeColor=#779CD4;" vertex="1" parent="1">
          <mxGeometry x="420" y="293" width="30" height="30" as="geometry" />
        </mxCell>
        <mxCell id="4PF_jre6dExDxbK1LLWj-126" value="" style="whiteSpace=wrap;html=1;aspect=fixed;fillColor=#779CD4;strokeColor=#779CD4;" vertex="1" parent="1">
          <mxGeometry x="380" y="333" width="30" height="30" as="geometry" />
        </mxCell>
        <mxCell id="4PF_jre6dExDxbK1LLWj-127" value="" style="whiteSpace=wrap;html=1;aspect=fixed;fillColor=#779CD4;strokeColor=#779CD4;" vertex="1" parent="1">
          <mxGeometry x="420" y="333" width="30" height="30" as="geometry" />
        </mxCell>
        <mxCell id="4PF_jre6dExDxbK1LLWj-128" value="" style="whiteSpace=wrap;html=1;aspect=fixed;fillColor=#779CD4;strokeColor=#779CD4;" vertex="1" parent="1">
          <mxGeometry x="380" y="373" width="30" height="30" as="geometry" />
        </mxCell>
        <mxCell id="4PF_jre6dExDxbK1LLWj-129" value="" style="whiteSpace=wrap;html=1;aspect=fixed;fillColor=#779CD4;strokeColor=#779CD4;" vertex="1" parent="1">
          <mxGeometry x="420" y="373" width="30" height="30" as="geometry" />
        </mxCell>
        <mxCell id="4PF_jre6dExDxbK1LLWj-130" value="" style="whiteSpace=wrap;html=1;aspect=fixed;fillColor=#779CD4;strokeColor=#779CD4;" vertex="1" parent="1">
          <mxGeometry x="380" y="423" width="30" height="30" as="geometry" />
        </mxCell>
        <mxCell id="4PF_jre6dExDxbK1LLWj-131" value="" style="whiteSpace=wrap;html=1;aspect=fixed;fillColor=#779CD4;strokeColor=#779CD4;" vertex="1" parent="1">
          <mxGeometry x="420" y="423" width="30" height="30" as="geometry" />
        </mxCell>
        <mxCell id="4PF_jre6dExDxbK1LLWj-132" value="" style="whiteSpace=wrap;html=1;aspect=fixed;fillColor=#779CD4;strokeColor=#779CD4;" vertex="1" parent="1">
          <mxGeometry x="380" y="463" width="30" height="30" as="geometry" />
        </mxCell>
        <mxCell id="4PF_jre6dExDxbK1LLWj-133" value="" style="whiteSpace=wrap;html=1;aspect=fixed;fillColor=#779CD4;strokeColor=#779CD4;" vertex="1" parent="1">
          <mxGeometry x="420" y="463" width="30" height="30" as="geometry" />
        </mxCell>
        <mxCell id="4PF_jre6dExDxbK1LLWj-134" value="" style="whiteSpace=wrap;html=1;aspect=fixed;fillColor=#779CD4;strokeColor=#779CD4;" vertex="1" parent="1">
          <mxGeometry x="380" y="503" width="30" height="30" as="geometry" />
        </mxCell>
        <mxCell id="4PF_jre6dExDxbK1LLWj-135" value="" style="whiteSpace=wrap;html=1;aspect=fixed;fillColor=#779CD4;strokeColor=#779CD4;" vertex="1" parent="1">
          <mxGeometry x="420" y="503" width="30" height="30" as="geometry" />
        </mxCell>
        <mxCell id="4PF_jre6dExDxbK1LLWj-136" value="" style="whiteSpace=wrap;html=1;aspect=fixed;fillColor=#779CD4;strokeColor=#779CD4;" vertex="1" parent="1">
          <mxGeometry x="380" y="543" width="30" height="30" as="geometry" />
        </mxCell>
        <mxCell id="4PF_jre6dExDxbK1LLWj-137" value="" style="whiteSpace=wrap;html=1;aspect=fixed;fillColor=#779CD4;strokeColor=#779CD4;" vertex="1" parent="1">
          <mxGeometry x="420" y="543" width="30" height="30" as="geometry" />
        </mxCell>
        <mxCell id="4PF_jre6dExDxbK1LLWj-138" value="" style="whiteSpace=wrap;html=1;aspect=fixed;fillColor=#779CD4;strokeColor=#779CD4;" vertex="1" parent="1">
          <mxGeometry x="380" y="593" width="30" height="30" as="geometry" />
        </mxCell>
        <mxCell id="4PF_jre6dExDxbK1LLWj-139" value="" style="whiteSpace=wrap;html=1;aspect=fixed;fillColor=#779CD4;strokeColor=#779CD4;" vertex="1" parent="1">
          <mxGeometry x="420" y="593" width="30" height="30" as="geometry" />
        </mxCell>
        <mxCell id="4PF_jre6dExDxbK1LLWj-140" value="" style="whiteSpace=wrap;html=1;aspect=fixed;fillColor=#779CD4;strokeColor=#779CD4;" vertex="1" parent="1">
          <mxGeometry x="380" y="633" width="30" height="30" as="geometry" />
        </mxCell>
        <mxCell id="4PF_jre6dExDxbK1LLWj-141" value="" style="whiteSpace=wrap;html=1;aspect=fixed;fillColor=#779CD4;strokeColor=#779CD4;" vertex="1" parent="1">
          <mxGeometry x="420" y="633" width="30" height="30" as="geometry" />
        </mxCell>
        <mxCell id="4PF_jre6dExDxbK1LLWj-142" value="" style="whiteSpace=wrap;html=1;aspect=fixed;fillColor=#779CD4;strokeColor=#779CD4;" vertex="1" parent="1">
          <mxGeometry x="380" y="673" width="30" height="30" as="geometry" />
        </mxCell>
        <mxCell id="4PF_jre6dExDxbK1LLWj-143" value="" style="whiteSpace=wrap;html=1;aspect=fixed;fillColor=#779CD4;strokeColor=#779CD4;" vertex="1" parent="1">
          <mxGeometry x="420" y="673" width="30" height="30" as="geometry" />
        </mxCell>
        <mxCell id="4PF_jre6dExDxbK1LLWj-144" value="" style="whiteSpace=wrap;html=1;aspect=fixed;fillColor=#779CD4;strokeColor=#779CD4;" vertex="1" parent="1">
          <mxGeometry x="380" y="713" width="30" height="30" as="geometry" />
        </mxCell>
        <mxCell id="4PF_jre6dExDxbK1LLWj-145" value="" style="whiteSpace=wrap;html=1;aspect=fixed;fillColor=#779CD4;strokeColor=#779CD4;" vertex="1" parent="1">
          <mxGeometry x="420" y="713" width="30" height="30" as="geometry" />
        </mxCell>
        <mxCell id="4PF_jre6dExDxbK1LLWj-146" value="" style="whiteSpace=wrap;html=1;aspect=fixed;fillColor=#779CD4;strokeColor=#779CD4;" vertex="1" parent="1">
          <mxGeometry x="480" y="83" width="30" height="30" as="geometry" />
        </mxCell>
        <mxCell id="4PF_jre6dExDxbK1LLWj-147" value="" style="whiteSpace=wrap;html=1;aspect=fixed;fillColor=#779CD4;strokeColor=#779CD4;" vertex="1" parent="1">
          <mxGeometry x="520" y="83" width="30" height="30" as="geometry" />
        </mxCell>
        <mxCell id="4PF_jre6dExDxbK1LLWj-148" value="" style="whiteSpace=wrap;html=1;aspect=fixed;fillColor=#779CD4;strokeColor=#779CD4;" vertex="1" parent="1">
          <mxGeometry x="480" y="123" width="30" height="30" as="geometry" />
        </mxCell>
        <mxCell id="4PF_jre6dExDxbK1LLWj-149" value="" style="whiteSpace=wrap;html=1;aspect=fixed;fillColor=#779CD4;strokeColor=#779CD4;" vertex="1" parent="1">
          <mxGeometry x="520" y="123" width="30" height="30" as="geometry" />
        </mxCell>
        <mxCell id="4PF_jre6dExDxbK1LLWj-150" value="" style="whiteSpace=wrap;html=1;aspect=fixed;fillColor=#779CD4;strokeColor=#779CD4;" vertex="1" parent="1">
          <mxGeometry x="480" y="163" width="30" height="30" as="geometry" />
        </mxCell>
        <mxCell id="4PF_jre6dExDxbK1LLWj-151" value="" style="whiteSpace=wrap;html=1;aspect=fixed;fillColor=#779CD4;strokeColor=#779CD4;" vertex="1" parent="1">
          <mxGeometry x="520" y="163" width="30" height="30" as="geometry" />
        </mxCell>
        <mxCell id="4PF_jre6dExDxbK1LLWj-152" value="" style="whiteSpace=wrap;html=1;aspect=fixed;fillColor=#779CD4;strokeColor=#779CD4;" vertex="1" parent="1">
          <mxGeometry x="480" y="203" width="30" height="30" as="geometry" />
        </mxCell>
        <mxCell id="4PF_jre6dExDxbK1LLWj-153" value="" style="whiteSpace=wrap;html=1;aspect=fixed;fillColor=#779CD4;strokeColor=#779CD4;" vertex="1" parent="1">
          <mxGeometry x="520" y="203" width="30" height="30" as="geometry" />
        </mxCell>
        <mxCell id="4PF_jre6dExDxbK1LLWj-154" value="" style="whiteSpace=wrap;html=1;aspect=fixed;fillColor=#779CD4;strokeColor=#779CD4;" vertex="1" parent="1">
          <mxGeometry x="480" y="253" width="30" height="30" as="geometry" />
        </mxCell>
        <mxCell id="4PF_jre6dExDxbK1LLWj-155" value="" style="whiteSpace=wrap;html=1;aspect=fixed;fillColor=#779CD4;strokeColor=#779CD4;" vertex="1" parent="1">
          <mxGeometry x="520" y="253" width="30" height="30" as="geometry" />
        </mxCell>
        <mxCell id="4PF_jre6dExDxbK1LLWj-156" value="" style="whiteSpace=wrap;html=1;aspect=fixed;fillColor=#779CD4;strokeColor=#779CD4;" vertex="1" parent="1">
          <mxGeometry x="480" y="293" width="30" height="30" as="geometry" />
        </mxCell>
        <mxCell id="4PF_jre6dExDxbK1LLWj-157" value="" style="whiteSpace=wrap;html=1;aspect=fixed;fillColor=#779CD4;strokeColor=#779CD4;" vertex="1" parent="1">
          <mxGeometry x="520" y="293" width="30" height="30" as="geometry" />
        </mxCell>
        <mxCell id="4PF_jre6dExDxbK1LLWj-158" value="" style="whiteSpace=wrap;html=1;aspect=fixed;fillColor=#779CD4;strokeColor=#779CD4;" vertex="1" parent="1">
          <mxGeometry x="480" y="333" width="30" height="30" as="geometry" />
        </mxCell>
        <mxCell id="4PF_jre6dExDxbK1LLWj-159" value="" style="whiteSpace=wrap;html=1;aspect=fixed;fillColor=#779CD4;strokeColor=#779CD4;" vertex="1" parent="1">
          <mxGeometry x="520" y="333" width="30" height="30" as="geometry" />
        </mxCell>
        <mxCell id="4PF_jre6dExDxbK1LLWj-160" value="" style="whiteSpace=wrap;html=1;aspect=fixed;fillColor=#779CD4;strokeColor=#779CD4;" vertex="1" parent="1">
          <mxGeometry x="480" y="373" width="30" height="30" as="geometry" />
        </mxCell>
        <mxCell id="4PF_jre6dExDxbK1LLWj-161" value="" style="whiteSpace=wrap;html=1;aspect=fixed;fillColor=#779CD4;strokeColor=#779CD4;" vertex="1" parent="1">
          <mxGeometry x="520" y="373" width="30" height="30" as="geometry" />
        </mxCell>
        <mxCell id="4PF_jre6dExDxbK1LLWj-162" value="" style="whiteSpace=wrap;html=1;aspect=fixed;fillColor=#779CD4;strokeColor=#779CD4;" vertex="1" parent="1">
          <mxGeometry x="480" y="423" width="30" height="30" as="geometry" />
        </mxCell>
        <mxCell id="4PF_jre6dExDxbK1LLWj-163" value="" style="whiteSpace=wrap;html=1;aspect=fixed;fillColor=#779CD4;strokeColor=#779CD4;" vertex="1" parent="1">
          <mxGeometry x="520" y="423" width="30" height="30" as="geometry" />
        </mxCell>
        <mxCell id="4PF_jre6dExDxbK1LLWj-164" value="" style="whiteSpace=wrap;html=1;aspect=fixed;fillColor=#779CD4;strokeColor=#779CD4;" vertex="1" parent="1">
          <mxGeometry x="480" y="463" width="30" height="30" as="geometry" />
        </mxCell>
        <mxCell id="4PF_jre6dExDxbK1LLWj-165" value="" style="whiteSpace=wrap;html=1;aspect=fixed;fillColor=#779CD4;strokeColor=#779CD4;" vertex="1" parent="1">
          <mxGeometry x="520" y="463" width="30" height="30" as="geometry" />
        </mxCell>
        <mxCell id="4PF_jre6dExDxbK1LLWj-166" value="" style="whiteSpace=wrap;html=1;aspect=fixed;fillColor=#779CD4;strokeColor=#779CD4;" vertex="1" parent="1">
          <mxGeometry x="480" y="503" width="30" height="30" as="geometry" />
        </mxCell>
        <mxCell id="4PF_jre6dExDxbK1LLWj-167" value="" style="whiteSpace=wrap;html=1;aspect=fixed;fillColor=#779CD4;strokeColor=#779CD4;" vertex="1" parent="1">
          <mxGeometry x="520" y="503" width="30" height="30" as="geometry" />
        </mxCell>
        <mxCell id="4PF_jre6dExDxbK1LLWj-168" value="" style="whiteSpace=wrap;html=1;aspect=fixed;fillColor=#779CD4;strokeColor=#779CD4;" vertex="1" parent="1">
          <mxGeometry x="480" y="543" width="30" height="30" as="geometry" />
        </mxCell>
        <mxCell id="4PF_jre6dExDxbK1LLWj-169" value="" style="whiteSpace=wrap;html=1;aspect=fixed;fillColor=#779CD4;strokeColor=#779CD4;" vertex="1" parent="1">
          <mxGeometry x="520" y="543" width="30" height="30" as="geometry" />
        </mxCell>
        <mxCell id="4PF_jre6dExDxbK1LLWj-170" value="" style="whiteSpace=wrap;html=1;aspect=fixed;fillColor=#779CD4;strokeColor=#779CD4;" vertex="1" parent="1">
          <mxGeometry x="480" y="593" width="30" height="30" as="geometry" />
        </mxCell>
        <mxCell id="4PF_jre6dExDxbK1LLWj-171" value="" style="whiteSpace=wrap;html=1;aspect=fixed;fillColor=#779CD4;strokeColor=#779CD4;" vertex="1" parent="1">
          <mxGeometry x="520" y="593" width="30" height="30" as="geometry" />
        </mxCell>
        <mxCell id="4PF_jre6dExDxbK1LLWj-172" value="" style="whiteSpace=wrap;html=1;aspect=fixed;fillColor=#779CD4;strokeColor=#779CD4;" vertex="1" parent="1">
          <mxGeometry x="480" y="633" width="30" height="30" as="geometry" />
        </mxCell>
        <mxCell id="4PF_jre6dExDxbK1LLWj-173" value="" style="whiteSpace=wrap;html=1;aspect=fixed;fillColor=#779CD4;strokeColor=#779CD4;" vertex="1" parent="1">
          <mxGeometry x="520" y="633" width="30" height="30" as="geometry" />
        </mxCell>
        <mxCell id="4PF_jre6dExDxbK1LLWj-174" value="" style="whiteSpace=wrap;html=1;aspect=fixed;fillColor=#779CD4;strokeColor=#779CD4;" vertex="1" parent="1">
          <mxGeometry x="480" y="673" width="30" height="30" as="geometry" />
        </mxCell>
        <mxCell id="4PF_jre6dExDxbK1LLWj-175" value="" style="whiteSpace=wrap;html=1;aspect=fixed;fillColor=#779CD4;strokeColor=#779CD4;" vertex="1" parent="1">
          <mxGeometry x="520" y="673" width="30" height="30" as="geometry" />
        </mxCell>
        <mxCell id="4PF_jre6dExDxbK1LLWj-176" value="" style="whiteSpace=wrap;html=1;aspect=fixed;fillColor=#779CD4;strokeColor=#779CD4;" vertex="1" parent="1">
          <mxGeometry x="480" y="713" width="30" height="30" as="geometry" />
        </mxCell>
        <mxCell id="4PF_jre6dExDxbK1LLWj-177" value="" style="whiteSpace=wrap;html=1;aspect=fixed;fillColor=#779CD4;strokeColor=#779CD4;" vertex="1" parent="1">
          <mxGeometry x="520" y="713" width="30" height="30" as="geometry" />
        </mxCell>
        <mxCell id="4PF_jre6dExDxbK1LLWj-178" value="" style="rounded=0;whiteSpace=wrap;html=1;fillColor=#990099;strokeColor=#660066;" vertex="1" parent="1">
          <mxGeometry x="560" y="83" width="10" height="150" as="geometry" />
        </mxCell>
        <mxCell id="4PF_jre6dExDxbK1LLWj-179" value="" style="rounded=0;whiteSpace=wrap;html=1;fillColor=#990099;strokeColor=#660066;" vertex="1" parent="1">
          <mxGeometry x="560" y="253" width="10" height="150" as="geometry" />
        </mxCell>
        <mxCell id="4PF_jre6dExDxbK1LLWj-180" value="" style="rounded=0;whiteSpace=wrap;html=1;fillColor=#990099;strokeColor=#660066;" vertex="1" parent="1">
          <mxGeometry x="560" y="423" width="10" height="150" as="geometry" />
        </mxCell>
        <mxCell id="4PF_jre6dExDxbK1LLWj-181" value="" style="rounded=0;whiteSpace=wrap;html=1;fillColor=#990099;strokeColor=#660066;" vertex="1" parent="1">
          <mxGeometry x="560" y="593" width="10" height="150" as="geometry" />
        </mxCell>
        <mxCell id="4PF_jre6dExDxbK1LLWj-182" value="" style="rounded=0;whiteSpace=wrap;html=1;fillColor=#A9C4EB;strokeColor=#A9C4EB;" vertex="1" parent="1">
          <mxGeometry x="570" y="83" width="10" height="150" as="geometry" />
        </mxCell>
        <mxCell id="4PF_jre6dExDxbK1LLWj-183" value="" style="rounded=0;whiteSpace=wrap;html=1;fillColor=#A9C4EB;strokeColor=#A9C4EB;" vertex="1" parent="1">
          <mxGeometry x="570" y="253" width="10" height="150" as="geometry" />
        </mxCell>
        <mxCell id="4PF_jre6dExDxbK1LLWj-184" value="" style="rounded=0;whiteSpace=wrap;html=1;fillColor=#A9C4EB;strokeColor=#A9C4EB;" vertex="1" parent="1">
          <mxGeometry x="570" y="423" width="10" height="150" as="geometry" />
        </mxCell>
        <mxCell id="4PF_jre6dExDxbK1LLWj-185" value="" style="rounded=0;whiteSpace=wrap;html=1;fillColor=#A9C4EB;strokeColor=#A9C4EB;" vertex="1" parent="1">
          <mxGeometry x="570" y="593" width="10" height="150" as="geometry" />
        </mxCell>
        <mxCell id="4PF_jre6dExDxbK1LLWj-186" value="" style="whiteSpace=wrap;html=1;aspect=fixed;fillColor=#779CD4;strokeColor=#779CD4;" vertex="1" parent="1">
          <mxGeometry x="590" y="83" width="30" height="30" as="geometry" />
        </mxCell>
        <mxCell id="4PF_jre6dExDxbK1LLWj-187" value="" style="whiteSpace=wrap;html=1;aspect=fixed;fillColor=#779CD4;strokeColor=#779CD4;" vertex="1" parent="1">
          <mxGeometry x="630" y="83" width="30" height="30" as="geometry" />
        </mxCell>
        <mxCell id="4PF_jre6dExDxbK1LLWj-188" value="" style="whiteSpace=wrap;html=1;aspect=fixed;fillColor=#779CD4;strokeColor=#779CD4;" vertex="1" parent="1">
          <mxGeometry x="590" y="123" width="30" height="30" as="geometry" />
        </mxCell>
        <mxCell id="4PF_jre6dExDxbK1LLWj-189" value="" style="whiteSpace=wrap;html=1;aspect=fixed;fillColor=#779CD4;strokeColor=#779CD4;" vertex="1" parent="1">
          <mxGeometry x="630" y="123" width="30" height="30" as="geometry" />
        </mxCell>
        <mxCell id="4PF_jre6dExDxbK1LLWj-190" value="" style="whiteSpace=wrap;html=1;aspect=fixed;fillColor=#779CD4;strokeColor=#779CD4;" vertex="1" parent="1">
          <mxGeometry x="590" y="163" width="30" height="30" as="geometry" />
        </mxCell>
        <mxCell id="4PF_jre6dExDxbK1LLWj-191" value="" style="whiteSpace=wrap;html=1;aspect=fixed;fillColor=#779CD4;strokeColor=#779CD4;" vertex="1" parent="1">
          <mxGeometry x="630" y="163" width="30" height="30" as="geometry" />
        </mxCell>
        <mxCell id="4PF_jre6dExDxbK1LLWj-192" value="" style="whiteSpace=wrap;html=1;aspect=fixed;fillColor=#779CD4;strokeColor=#779CD4;" vertex="1" parent="1">
          <mxGeometry x="590" y="203" width="30" height="30" as="geometry" />
        </mxCell>
        <mxCell id="4PF_jre6dExDxbK1LLWj-193" value="" style="whiteSpace=wrap;html=1;aspect=fixed;fillColor=#779CD4;strokeColor=#779CD4;" vertex="1" parent="1">
          <mxGeometry x="630" y="203" width="30" height="30" as="geometry" />
        </mxCell>
        <mxCell id="4PF_jre6dExDxbK1LLWj-194" value="" style="whiteSpace=wrap;html=1;aspect=fixed;fillColor=#779CD4;strokeColor=#779CD4;" vertex="1" parent="1">
          <mxGeometry x="590" y="253" width="30" height="30" as="geometry" />
        </mxCell>
        <mxCell id="4PF_jre6dExDxbK1LLWj-195" value="" style="whiteSpace=wrap;html=1;aspect=fixed;fillColor=#779CD4;strokeColor=#779CD4;" vertex="1" parent="1">
          <mxGeometry x="630" y="253" width="30" height="30" as="geometry" />
        </mxCell>
        <mxCell id="4PF_jre6dExDxbK1LLWj-196" value="" style="whiteSpace=wrap;html=1;aspect=fixed;fillColor=#779CD4;strokeColor=#779CD4;" vertex="1" parent="1">
          <mxGeometry x="590" y="293" width="30" height="30" as="geometry" />
        </mxCell>
        <mxCell id="4PF_jre6dExDxbK1LLWj-197" value="" style="whiteSpace=wrap;html=1;aspect=fixed;fillColor=#779CD4;strokeColor=#779CD4;" vertex="1" parent="1">
          <mxGeometry x="630" y="293" width="30" height="30" as="geometry" />
        </mxCell>
        <mxCell id="4PF_jre6dExDxbK1LLWj-198" value="" style="whiteSpace=wrap;html=1;aspect=fixed;fillColor=#779CD4;strokeColor=#779CD4;" vertex="1" parent="1">
          <mxGeometry x="590" y="333" width="30" height="30" as="geometry" />
        </mxCell>
        <mxCell id="4PF_jre6dExDxbK1LLWj-199" value="" style="whiteSpace=wrap;html=1;aspect=fixed;fillColor=#779CD4;strokeColor=#779CD4;" vertex="1" parent="1">
          <mxGeometry x="630" y="333" width="30" height="30" as="geometry" />
        </mxCell>
        <mxCell id="4PF_jre6dExDxbK1LLWj-200" value="" style="whiteSpace=wrap;html=1;aspect=fixed;fillColor=#779CD4;strokeColor=#779CD4;" vertex="1" parent="1">
          <mxGeometry x="590" y="373" width="30" height="30" as="geometry" />
        </mxCell>
        <mxCell id="4PF_jre6dExDxbK1LLWj-201" value="" style="whiteSpace=wrap;html=1;aspect=fixed;fillColor=#779CD4;strokeColor=#779CD4;" vertex="1" parent="1">
          <mxGeometry x="630" y="373" width="30" height="30" as="geometry" />
        </mxCell>
        <mxCell id="4PF_jre6dExDxbK1LLWj-202" value="" style="whiteSpace=wrap;html=1;aspect=fixed;fillColor=#779CD4;strokeColor=#779CD4;" vertex="1" parent="1">
          <mxGeometry x="590" y="423" width="30" height="30" as="geometry" />
        </mxCell>
        <mxCell id="4PF_jre6dExDxbK1LLWj-203" value="" style="whiteSpace=wrap;html=1;aspect=fixed;fillColor=#779CD4;strokeColor=#779CD4;" vertex="1" parent="1">
          <mxGeometry x="630" y="423" width="30" height="30" as="geometry" />
        </mxCell>
        <mxCell id="4PF_jre6dExDxbK1LLWj-204" value="" style="whiteSpace=wrap;html=1;aspect=fixed;fillColor=#779CD4;strokeColor=#779CD4;" vertex="1" parent="1">
          <mxGeometry x="590" y="463" width="30" height="30" as="geometry" />
        </mxCell>
        <mxCell id="4PF_jre6dExDxbK1LLWj-205" value="" style="whiteSpace=wrap;html=1;aspect=fixed;fillColor=#779CD4;strokeColor=#779CD4;" vertex="1" parent="1">
          <mxGeometry x="630" y="463" width="30" height="30" as="geometry" />
        </mxCell>
        <mxCell id="4PF_jre6dExDxbK1LLWj-206" value="" style="whiteSpace=wrap;html=1;aspect=fixed;fillColor=#779CD4;strokeColor=#779CD4;" vertex="1" parent="1">
          <mxGeometry x="590" y="503" width="30" height="30" as="geometry" />
        </mxCell>
        <mxCell id="4PF_jre6dExDxbK1LLWj-207" value="" style="whiteSpace=wrap;html=1;aspect=fixed;fillColor=#779CD4;strokeColor=#779CD4;" vertex="1" parent="1">
          <mxGeometry x="630" y="503" width="30" height="30" as="geometry" />
        </mxCell>
        <mxCell id="4PF_jre6dExDxbK1LLWj-208" value="" style="whiteSpace=wrap;html=1;aspect=fixed;fillColor=#779CD4;strokeColor=#779CD4;" vertex="1" parent="1">
          <mxGeometry x="590" y="543" width="30" height="30" as="geometry" />
        </mxCell>
        <mxCell id="4PF_jre6dExDxbK1LLWj-209" value="" style="whiteSpace=wrap;html=1;aspect=fixed;fillColor=#779CD4;strokeColor=#779CD4;" vertex="1" parent="1">
          <mxGeometry x="630" y="543" width="30" height="30" as="geometry" />
        </mxCell>
        <mxCell id="4PF_jre6dExDxbK1LLWj-210" value="" style="whiteSpace=wrap;html=1;aspect=fixed;fillColor=#779CD4;strokeColor=#779CD4;" vertex="1" parent="1">
          <mxGeometry x="590" y="593" width="30" height="30" as="geometry" />
        </mxCell>
        <mxCell id="4PF_jre6dExDxbK1LLWj-211" value="" style="whiteSpace=wrap;html=1;aspect=fixed;fillColor=#779CD4;strokeColor=#779CD4;" vertex="1" parent="1">
          <mxGeometry x="630" y="593" width="30" height="30" as="geometry" />
        </mxCell>
        <mxCell id="4PF_jre6dExDxbK1LLWj-212" value="" style="whiteSpace=wrap;html=1;aspect=fixed;fillColor=#779CD4;strokeColor=#779CD4;" vertex="1" parent="1">
          <mxGeometry x="590" y="633" width="30" height="30" as="geometry" />
        </mxCell>
        <mxCell id="4PF_jre6dExDxbK1LLWj-213" value="" style="whiteSpace=wrap;html=1;aspect=fixed;fillColor=#779CD4;strokeColor=#779CD4;" vertex="1" parent="1">
          <mxGeometry x="630" y="633" width="30" height="30" as="geometry" />
        </mxCell>
        <mxCell id="4PF_jre6dExDxbK1LLWj-214" value="" style="whiteSpace=wrap;html=1;aspect=fixed;fillColor=#779CD4;strokeColor=#779CD4;" vertex="1" parent="1">
          <mxGeometry x="590" y="673" width="30" height="30" as="geometry" />
        </mxCell>
        <mxCell id="4PF_jre6dExDxbK1LLWj-215" value="" style="whiteSpace=wrap;html=1;aspect=fixed;fillColor=#779CD4;strokeColor=#779CD4;" vertex="1" parent="1">
          <mxGeometry x="630" y="673" width="30" height="30" as="geometry" />
        </mxCell>
        <mxCell id="4PF_jre6dExDxbK1LLWj-216" value="" style="whiteSpace=wrap;html=1;aspect=fixed;fillColor=#779CD4;strokeColor=#779CD4;" vertex="1" parent="1">
          <mxGeometry x="590" y="713" width="30" height="30" as="geometry" />
        </mxCell>
        <mxCell id="4PF_jre6dExDxbK1LLWj-217" value="" style="whiteSpace=wrap;html=1;aspect=fixed;fillColor=#779CD4;strokeColor=#779CD4;" vertex="1" parent="1">
          <mxGeometry x="630" y="713" width="30" height="30" as="geometry" />
        </mxCell>
        <mxCell id="4PF_jre6dExDxbK1LLWj-218" value="" style="whiteSpace=wrap;html=1;aspect=fixed;fillColor=#779CD4;strokeColor=#779CD4;" vertex="1" parent="1">
          <mxGeometry x="670" y="83" width="30" height="30" as="geometry" />
        </mxCell>
        <mxCell id="4PF_jre6dExDxbK1LLWj-219" value="" style="whiteSpace=wrap;html=1;aspect=fixed;fillColor=#779CD4;strokeColor=#779CD4;" vertex="1" parent="1">
          <mxGeometry x="710" y="83" width="30" height="30" as="geometry" />
        </mxCell>
        <mxCell id="4PF_jre6dExDxbK1LLWj-220" value="" style="whiteSpace=wrap;html=1;aspect=fixed;fillColor=#779CD4;strokeColor=#779CD4;" vertex="1" parent="1">
          <mxGeometry x="670" y="123" width="30" height="30" as="geometry" />
        </mxCell>
        <mxCell id="4PF_jre6dExDxbK1LLWj-221" value="" style="whiteSpace=wrap;html=1;aspect=fixed;fillColor=#779CD4;strokeColor=#779CD4;" vertex="1" parent="1">
          <mxGeometry x="710" y="123" width="30" height="30" as="geometry" />
        </mxCell>
        <mxCell id="4PF_jre6dExDxbK1LLWj-222" value="" style="whiteSpace=wrap;html=1;aspect=fixed;fillColor=#779CD4;strokeColor=#779CD4;" vertex="1" parent="1">
          <mxGeometry x="670" y="163" width="30" height="30" as="geometry" />
        </mxCell>
        <mxCell id="4PF_jre6dExDxbK1LLWj-223" value="" style="whiteSpace=wrap;html=1;aspect=fixed;fillColor=#779CD4;strokeColor=#779CD4;" vertex="1" parent="1">
          <mxGeometry x="710" y="163" width="30" height="30" as="geometry" />
        </mxCell>
        <mxCell id="4PF_jre6dExDxbK1LLWj-224" value="" style="whiteSpace=wrap;html=1;aspect=fixed;fillColor=#779CD4;strokeColor=#779CD4;" vertex="1" parent="1">
          <mxGeometry x="670" y="203" width="30" height="30" as="geometry" />
        </mxCell>
        <mxCell id="4PF_jre6dExDxbK1LLWj-225" value="" style="whiteSpace=wrap;html=1;aspect=fixed;fillColor=#779CD4;strokeColor=#779CD4;" vertex="1" parent="1">
          <mxGeometry x="710" y="203" width="30" height="30" as="geometry" />
        </mxCell>
        <mxCell id="4PF_jre6dExDxbK1LLWj-226" value="" style="whiteSpace=wrap;html=1;aspect=fixed;fillColor=#779CD4;strokeColor=#779CD4;" vertex="1" parent="1">
          <mxGeometry x="670" y="253" width="30" height="30" as="geometry" />
        </mxCell>
        <mxCell id="4PF_jre6dExDxbK1LLWj-227" value="" style="whiteSpace=wrap;html=1;aspect=fixed;fillColor=#779CD4;strokeColor=#779CD4;" vertex="1" parent="1">
          <mxGeometry x="710" y="253" width="30" height="30" as="geometry" />
        </mxCell>
        <mxCell id="4PF_jre6dExDxbK1LLWj-228" value="" style="whiteSpace=wrap;html=1;aspect=fixed;fillColor=#779CD4;strokeColor=#779CD4;" vertex="1" parent="1">
          <mxGeometry x="670" y="293" width="30" height="30" as="geometry" />
        </mxCell>
        <mxCell id="4PF_jre6dExDxbK1LLWj-229" value="" style="whiteSpace=wrap;html=1;aspect=fixed;fillColor=#779CD4;strokeColor=#779CD4;" vertex="1" parent="1">
          <mxGeometry x="710" y="293" width="30" height="30" as="geometry" />
        </mxCell>
        <mxCell id="4PF_jre6dExDxbK1LLWj-230" value="" style="whiteSpace=wrap;html=1;aspect=fixed;fillColor=#779CD4;strokeColor=#779CD4;" vertex="1" parent="1">
          <mxGeometry x="670" y="333" width="30" height="30" as="geometry" />
        </mxCell>
        <mxCell id="4PF_jre6dExDxbK1LLWj-231" value="" style="whiteSpace=wrap;html=1;aspect=fixed;fillColor=#779CD4;strokeColor=#779CD4;" vertex="1" parent="1">
          <mxGeometry x="710" y="333" width="30" height="30" as="geometry" />
        </mxCell>
        <mxCell id="4PF_jre6dExDxbK1LLWj-232" value="" style="whiteSpace=wrap;html=1;aspect=fixed;fillColor=#779CD4;strokeColor=#779CD4;" vertex="1" parent="1">
          <mxGeometry x="670" y="373" width="30" height="30" as="geometry" />
        </mxCell>
        <mxCell id="4PF_jre6dExDxbK1LLWj-233" value="" style="whiteSpace=wrap;html=1;aspect=fixed;fillColor=#779CD4;strokeColor=#779CD4;" vertex="1" parent="1">
          <mxGeometry x="710" y="373" width="30" height="30" as="geometry" />
        </mxCell>
        <mxCell id="4PF_jre6dExDxbK1LLWj-234" value="" style="whiteSpace=wrap;html=1;aspect=fixed;fillColor=#779CD4;strokeColor=#779CD4;" vertex="1" parent="1">
          <mxGeometry x="670" y="423" width="30" height="30" as="geometry" />
        </mxCell>
        <mxCell id="4PF_jre6dExDxbK1LLWj-235" value="" style="whiteSpace=wrap;html=1;aspect=fixed;fillColor=#779CD4;strokeColor=#779CD4;" vertex="1" parent="1">
          <mxGeometry x="710" y="423" width="30" height="30" as="geometry" />
        </mxCell>
        <mxCell id="4PF_jre6dExDxbK1LLWj-236" value="" style="whiteSpace=wrap;html=1;aspect=fixed;fillColor=#779CD4;strokeColor=#779CD4;" vertex="1" parent="1">
          <mxGeometry x="670" y="463" width="30" height="30" as="geometry" />
        </mxCell>
        <mxCell id="4PF_jre6dExDxbK1LLWj-237" value="" style="whiteSpace=wrap;html=1;aspect=fixed;fillColor=#779CD4;strokeColor=#779CD4;" vertex="1" parent="1">
          <mxGeometry x="710" y="463" width="30" height="30" as="geometry" />
        </mxCell>
        <mxCell id="4PF_jre6dExDxbK1LLWj-238" value="" style="whiteSpace=wrap;html=1;aspect=fixed;fillColor=#779CD4;strokeColor=#779CD4;" vertex="1" parent="1">
          <mxGeometry x="670" y="503" width="30" height="30" as="geometry" />
        </mxCell>
        <mxCell id="4PF_jre6dExDxbK1LLWj-239" value="" style="whiteSpace=wrap;html=1;aspect=fixed;fillColor=#779CD4;strokeColor=#779CD4;" vertex="1" parent="1">
          <mxGeometry x="710" y="503" width="30" height="30" as="geometry" />
        </mxCell>
        <mxCell id="4PF_jre6dExDxbK1LLWj-240" value="" style="whiteSpace=wrap;html=1;aspect=fixed;fillColor=#779CD4;strokeColor=#779CD4;" vertex="1" parent="1">
          <mxGeometry x="670" y="543" width="30" height="30" as="geometry" />
        </mxCell>
        <mxCell id="4PF_jre6dExDxbK1LLWj-241" value="" style="whiteSpace=wrap;html=1;aspect=fixed;fillColor=#779CD4;strokeColor=#779CD4;" vertex="1" parent="1">
          <mxGeometry x="710" y="543" width="30" height="30" as="geometry" />
        </mxCell>
        <mxCell id="4PF_jre6dExDxbK1LLWj-242" value="" style="whiteSpace=wrap;html=1;aspect=fixed;fillColor=#779CD4;strokeColor=#779CD4;" vertex="1" parent="1">
          <mxGeometry x="670" y="593" width="30" height="30" as="geometry" />
        </mxCell>
        <mxCell id="4PF_jre6dExDxbK1LLWj-243" value="" style="whiteSpace=wrap;html=1;aspect=fixed;fillColor=#779CD4;strokeColor=#779CD4;" vertex="1" parent="1">
          <mxGeometry x="710" y="593" width="30" height="30" as="geometry" />
        </mxCell>
        <mxCell id="4PF_jre6dExDxbK1LLWj-244" value="" style="whiteSpace=wrap;html=1;aspect=fixed;fillColor=#779CD4;strokeColor=#779CD4;" vertex="1" parent="1">
          <mxGeometry x="670" y="633" width="30" height="30" as="geometry" />
        </mxCell>
        <mxCell id="4PF_jre6dExDxbK1LLWj-245" value="" style="whiteSpace=wrap;html=1;aspect=fixed;fillColor=#779CD4;strokeColor=#779CD4;" vertex="1" parent="1">
          <mxGeometry x="710" y="633" width="30" height="30" as="geometry" />
        </mxCell>
        <mxCell id="4PF_jre6dExDxbK1LLWj-246" value="" style="whiteSpace=wrap;html=1;aspect=fixed;fillColor=#779CD4;strokeColor=#779CD4;" vertex="1" parent="1">
          <mxGeometry x="670" y="673" width="30" height="30" as="geometry" />
        </mxCell>
        <mxCell id="4PF_jre6dExDxbK1LLWj-247" value="" style="whiteSpace=wrap;html=1;aspect=fixed;fillColor=#779CD4;strokeColor=#779CD4;" vertex="1" parent="1">
          <mxGeometry x="710" y="673" width="30" height="30" as="geometry" />
        </mxCell>
        <mxCell id="4PF_jre6dExDxbK1LLWj-248" value="" style="whiteSpace=wrap;html=1;aspect=fixed;fillColor=#779CD4;strokeColor=#779CD4;" vertex="1" parent="1">
          <mxGeometry x="670" y="713" width="30" height="30" as="geometry" />
        </mxCell>
        <mxCell id="4PF_jre6dExDxbK1LLWj-249" value="" style="whiteSpace=wrap;html=1;aspect=fixed;fillColor=#779CD4;strokeColor=#779CD4;" vertex="1" parent="1">
          <mxGeometry x="710" y="713" width="30" height="30" as="geometry" />
        </mxCell>
        <mxCell id="4PF_jre6dExDxbK1LLWj-250" value="" style="rounded=0;whiteSpace=wrap;html=1;fillColor=#990099;strokeColor=#660066;" vertex="1" parent="1">
          <mxGeometry x="750" y="83" width="10" height="150" as="geometry" />
        </mxCell>
        <mxCell id="4PF_jre6dExDxbK1LLWj-251" value="" style="rounded=0;whiteSpace=wrap;html=1;fillColor=#990099;strokeColor=#660066;" vertex="1" parent="1">
          <mxGeometry x="750" y="253" width="10" height="150" as="geometry" />
        </mxCell>
        <mxCell id="4PF_jre6dExDxbK1LLWj-252" value="" style="rounded=0;whiteSpace=wrap;html=1;fillColor=#990099;strokeColor=#660066;" vertex="1" parent="1">
          <mxGeometry x="750" y="423" width="10" height="150" as="geometry" />
        </mxCell>
        <mxCell id="4PF_jre6dExDxbK1LLWj-254" value="" style="rounded=0;whiteSpace=wrap;html=1;fillColor=#A9C4EB;strokeColor=#A9C4EB;" vertex="1" parent="1">
          <mxGeometry x="760" y="83" width="10" height="150" as="geometry" />
        </mxCell>
        <mxCell id="4PF_jre6dExDxbK1LLWj-255" value="" style="rounded=0;whiteSpace=wrap;html=1;fillColor=#A9C4EB;strokeColor=#A9C4EB;" vertex="1" parent="1">
          <mxGeometry x="760" y="253" width="10" height="150" as="geometry" />
        </mxCell>
        <mxCell id="4PF_jre6dExDxbK1LLWj-256" value="" style="rounded=0;whiteSpace=wrap;html=1;fillColor=#A9C4EB;strokeColor=#A9C4EB;" vertex="1" parent="1">
          <mxGeometry x="760" y="423" width="10" height="150" as="geometry" />
        </mxCell>
        <mxCell id="4PF_jre6dExDxbK1LLWj-257" value="" style="rounded=0;whiteSpace=wrap;html=1;fillColor=#A9C4EB;strokeColor=#A9C4EB;" vertex="1" parent="1">
          <mxGeometry x="760" y="593" width="10" height="150" as="geometry" />
        </mxCell>
        <mxCell id="4PF_jre6dExDxbK1LLWj-258" value="" style="whiteSpace=wrap;html=1;aspect=fixed;fillColor=#779CD4;strokeColor=#779CD4;" vertex="1" parent="1">
          <mxGeometry x="780" y="83" width="30" height="30" as="geometry" />
        </mxCell>
        <mxCell id="4PF_jre6dExDxbK1LLWj-259" value="" style="whiteSpace=wrap;html=1;aspect=fixed;fillColor=#779CD4;strokeColor=#779CD4;" vertex="1" parent="1">
          <mxGeometry x="820" y="83" width="30" height="30" as="geometry" />
        </mxCell>
        <mxCell id="4PF_jre6dExDxbK1LLWj-260" value="" style="whiteSpace=wrap;html=1;aspect=fixed;fillColor=#779CD4;strokeColor=#779CD4;" vertex="1" parent="1">
          <mxGeometry x="780" y="123" width="30" height="30" as="geometry" />
        </mxCell>
        <mxCell id="4PF_jre6dExDxbK1LLWj-261" value="" style="whiteSpace=wrap;html=1;aspect=fixed;fillColor=#779CD4;strokeColor=#779CD4;" vertex="1" parent="1">
          <mxGeometry x="820" y="123" width="30" height="30" as="geometry" />
        </mxCell>
        <mxCell id="4PF_jre6dExDxbK1LLWj-262" value="" style="whiteSpace=wrap;html=1;aspect=fixed;fillColor=#779CD4;strokeColor=#779CD4;" vertex="1" parent="1">
          <mxGeometry x="780" y="163" width="30" height="30" as="geometry" />
        </mxCell>
        <mxCell id="4PF_jre6dExDxbK1LLWj-263" value="" style="whiteSpace=wrap;html=1;aspect=fixed;fillColor=#779CD4;strokeColor=#779CD4;" vertex="1" parent="1">
          <mxGeometry x="820" y="163" width="30" height="30" as="geometry" />
        </mxCell>
        <mxCell id="4PF_jre6dExDxbK1LLWj-264" value="" style="whiteSpace=wrap;html=1;aspect=fixed;fillColor=#779CD4;strokeColor=#779CD4;" vertex="1" parent="1">
          <mxGeometry x="780" y="203" width="30" height="30" as="geometry" />
        </mxCell>
        <mxCell id="4PF_jre6dExDxbK1LLWj-265" value="" style="whiteSpace=wrap;html=1;aspect=fixed;fillColor=#779CD4;strokeColor=#779CD4;" vertex="1" parent="1">
          <mxGeometry x="820" y="203" width="30" height="30" as="geometry" />
        </mxCell>
        <mxCell id="4PF_jre6dExDxbK1LLWj-266" value="" style="whiteSpace=wrap;html=1;aspect=fixed;fillColor=#779CD4;strokeColor=#779CD4;" vertex="1" parent="1">
          <mxGeometry x="780" y="253" width="30" height="30" as="geometry" />
        </mxCell>
        <mxCell id="4PF_jre6dExDxbK1LLWj-267" value="" style="whiteSpace=wrap;html=1;aspect=fixed;fillColor=#779CD4;strokeColor=#779CD4;" vertex="1" parent="1">
          <mxGeometry x="820" y="253" width="30" height="30" as="geometry" />
        </mxCell>
        <mxCell id="4PF_jre6dExDxbK1LLWj-268" value="" style="whiteSpace=wrap;html=1;aspect=fixed;fillColor=#779CD4;strokeColor=#779CD4;" vertex="1" parent="1">
          <mxGeometry x="780" y="293" width="30" height="30" as="geometry" />
        </mxCell>
        <mxCell id="4PF_jre6dExDxbK1LLWj-269" value="" style="whiteSpace=wrap;html=1;aspect=fixed;fillColor=#779CD4;strokeColor=#779CD4;" vertex="1" parent="1">
          <mxGeometry x="820" y="293" width="30" height="30" as="geometry" />
        </mxCell>
        <mxCell id="4PF_jre6dExDxbK1LLWj-270" value="" style="whiteSpace=wrap;html=1;aspect=fixed;fillColor=#779CD4;strokeColor=#779CD4;" vertex="1" parent="1">
          <mxGeometry x="780" y="333" width="30" height="30" as="geometry" />
        </mxCell>
        <mxCell id="4PF_jre6dExDxbK1LLWj-271" value="" style="whiteSpace=wrap;html=1;aspect=fixed;fillColor=#779CD4;strokeColor=#779CD4;" vertex="1" parent="1">
          <mxGeometry x="820" y="333" width="30" height="30" as="geometry" />
        </mxCell>
        <mxCell id="4PF_jre6dExDxbK1LLWj-272" value="" style="whiteSpace=wrap;html=1;aspect=fixed;fillColor=#779CD4;strokeColor=#779CD4;" vertex="1" parent="1">
          <mxGeometry x="780" y="373" width="30" height="30" as="geometry" />
        </mxCell>
        <mxCell id="4PF_jre6dExDxbK1LLWj-273" value="" style="whiteSpace=wrap;html=1;aspect=fixed;fillColor=#779CD4;strokeColor=#779CD4;" vertex="1" parent="1">
          <mxGeometry x="820" y="373" width="30" height="30" as="geometry" />
        </mxCell>
        <mxCell id="4PF_jre6dExDxbK1LLWj-274" value="" style="whiteSpace=wrap;html=1;aspect=fixed;fillColor=#779CD4;strokeColor=#779CD4;" vertex="1" parent="1">
          <mxGeometry x="780" y="423" width="30" height="30" as="geometry" />
        </mxCell>
        <mxCell id="4PF_jre6dExDxbK1LLWj-275" value="" style="whiteSpace=wrap;html=1;aspect=fixed;fillColor=#779CD4;strokeColor=#779CD4;" vertex="1" parent="1">
          <mxGeometry x="820" y="423" width="30" height="30" as="geometry" />
        </mxCell>
        <mxCell id="4PF_jre6dExDxbK1LLWj-276" value="" style="whiteSpace=wrap;html=1;aspect=fixed;fillColor=#779CD4;strokeColor=#779CD4;" vertex="1" parent="1">
          <mxGeometry x="780" y="463" width="30" height="30" as="geometry" />
        </mxCell>
        <mxCell id="4PF_jre6dExDxbK1LLWj-277" value="" style="whiteSpace=wrap;html=1;aspect=fixed;fillColor=#779CD4;strokeColor=#779CD4;" vertex="1" parent="1">
          <mxGeometry x="820" y="463" width="30" height="30" as="geometry" />
        </mxCell>
        <mxCell id="4PF_jre6dExDxbK1LLWj-278" value="" style="whiteSpace=wrap;html=1;aspect=fixed;fillColor=#779CD4;strokeColor=#779CD4;" vertex="1" parent="1">
          <mxGeometry x="780" y="503" width="30" height="30" as="geometry" />
        </mxCell>
        <mxCell id="4PF_jre6dExDxbK1LLWj-279" value="" style="whiteSpace=wrap;html=1;aspect=fixed;fillColor=#779CD4;strokeColor=#779CD4;" vertex="1" parent="1">
          <mxGeometry x="820" y="503" width="30" height="30" as="geometry" />
        </mxCell>
        <mxCell id="4PF_jre6dExDxbK1LLWj-280" value="" style="whiteSpace=wrap;html=1;aspect=fixed;fillColor=#779CD4;strokeColor=#779CD4;" vertex="1" parent="1">
          <mxGeometry x="780" y="543" width="30" height="30" as="geometry" />
        </mxCell>
        <mxCell id="4PF_jre6dExDxbK1LLWj-281" value="" style="whiteSpace=wrap;html=1;aspect=fixed;fillColor=#779CD4;strokeColor=#779CD4;" vertex="1" parent="1">
          <mxGeometry x="820" y="543" width="30" height="30" as="geometry" />
        </mxCell>
        <mxCell id="4PF_jre6dExDxbK1LLWj-282" value="" style="whiteSpace=wrap;html=1;aspect=fixed;fillColor=#779CD4;strokeColor=#779CD4;" vertex="1" parent="1">
          <mxGeometry x="780" y="593" width="30" height="30" as="geometry" />
        </mxCell>
        <mxCell id="4PF_jre6dExDxbK1LLWj-283" value="" style="whiteSpace=wrap;html=1;aspect=fixed;fillColor=#779CD4;strokeColor=#779CD4;" vertex="1" parent="1">
          <mxGeometry x="820" y="593" width="30" height="30" as="geometry" />
        </mxCell>
        <mxCell id="4PF_jre6dExDxbK1LLWj-284" value="" style="whiteSpace=wrap;html=1;aspect=fixed;fillColor=#779CD4;strokeColor=#779CD4;" vertex="1" parent="1">
          <mxGeometry x="780" y="633" width="30" height="30" as="geometry" />
        </mxCell>
        <mxCell id="4PF_jre6dExDxbK1LLWj-285" value="" style="whiteSpace=wrap;html=1;aspect=fixed;fillColor=#779CD4;strokeColor=#779CD4;" vertex="1" parent="1">
          <mxGeometry x="820" y="633" width="30" height="30" as="geometry" />
        </mxCell>
        <mxCell id="4PF_jre6dExDxbK1LLWj-286" value="" style="whiteSpace=wrap;html=1;aspect=fixed;fillColor=#779CD4;strokeColor=#779CD4;" vertex="1" parent="1">
          <mxGeometry x="780" y="673" width="30" height="30" as="geometry" />
        </mxCell>
        <mxCell id="4PF_jre6dExDxbK1LLWj-287" value="" style="whiteSpace=wrap;html=1;aspect=fixed;fillColor=#779CD4;strokeColor=#779CD4;" vertex="1" parent="1">
          <mxGeometry x="820" y="673" width="30" height="30" as="geometry" />
        </mxCell>
        <mxCell id="4PF_jre6dExDxbK1LLWj-288" value="" style="whiteSpace=wrap;html=1;aspect=fixed;fillColor=#779CD4;strokeColor=#779CD4;" vertex="1" parent="1">
          <mxGeometry x="780" y="713" width="30" height="30" as="geometry" />
        </mxCell>
        <mxCell id="4PF_jre6dExDxbK1LLWj-289" value="" style="whiteSpace=wrap;html=1;aspect=fixed;fillColor=#779CD4;strokeColor=#779CD4;" vertex="1" parent="1">
          <mxGeometry x="820" y="713" width="30" height="30" as="geometry" />
        </mxCell>
        <mxCell id="4PF_jre6dExDxbK1LLWj-290" value="" style="rounded=0;whiteSpace=wrap;html=1;fillColor=#004C99;strokeColor=#004C99;" vertex="1" parent="1">
          <mxGeometry x="60" y="83" width="15" height="30" as="geometry" />
        </mxCell>
        <mxCell id="4PF_jre6dExDxbK1LLWj-291" value="" style="rounded=0;whiteSpace=wrap;html=1;fillColor=#004C99;strokeColor=#004C99;" vertex="1" parent="1">
          <mxGeometry x="60" y="123" width="15" height="30" as="geometry" />
        </mxCell>
        <mxCell id="4PF_jre6dExDxbK1LLWj-292" value="" style="rounded=0;whiteSpace=wrap;html=1;fillColor=#004C99;strokeColor=#004C99;" vertex="1" parent="1">
          <mxGeometry x="60" y="163" width="15" height="30" as="geometry" />
        </mxCell>
        <mxCell id="4PF_jre6dExDxbK1LLWj-293" value="" style="rounded=0;whiteSpace=wrap;html=1;fillColor=#004C99;strokeColor=#004C99;" vertex="1" parent="1">
          <mxGeometry x="60" y="203" width="15" height="30" as="geometry" />
        </mxCell>
        <mxCell id="4PF_jre6dExDxbK1LLWj-296" value="" style="rounded=0;whiteSpace=wrap;html=1;fillColor=#004C99;strokeColor=#004C99;" vertex="1" parent="1">
          <mxGeometry x="60" y="253" width="15" height="30" as="geometry" />
        </mxCell>
        <mxCell id="4PF_jre6dExDxbK1LLWj-297" value="" style="rounded=0;whiteSpace=wrap;html=1;fillColor=#004C99;strokeColor=#004C99;" vertex="1" parent="1">
          <mxGeometry x="60" y="293" width="15" height="30" as="geometry" />
        </mxCell>
        <mxCell id="4PF_jre6dExDxbK1LLWj-298" value="" style="rounded=0;whiteSpace=wrap;html=1;fillColor=#004C99;strokeColor=#004C99;" vertex="1" parent="1">
          <mxGeometry x="60" y="333" width="15" height="30" as="geometry" />
        </mxCell>
        <mxCell id="4PF_jre6dExDxbK1LLWj-299" value="" style="rounded=0;whiteSpace=wrap;html=1;fillColor=#004C99;strokeColor=#004C99;" vertex="1" parent="1">
          <mxGeometry x="60" y="373" width="15" height="30" as="geometry" />
        </mxCell>
        <mxCell id="4PF_jre6dExDxbK1LLWj-300" value="" style="rounded=0;whiteSpace=wrap;html=1;fillColor=#004C99;strokeColor=#004C99;" vertex="1" parent="1">
          <mxGeometry x="60" y="423" width="15" height="30" as="geometry" />
        </mxCell>
        <mxCell id="4PF_jre6dExDxbK1LLWj-301" value="" style="rounded=0;whiteSpace=wrap;html=1;fillColor=#004C99;strokeColor=#004C99;" vertex="1" parent="1">
          <mxGeometry x="60" y="463" width="15" height="30" as="geometry" />
        </mxCell>
        <mxCell id="4PF_jre6dExDxbK1LLWj-302" value="" style="rounded=0;whiteSpace=wrap;html=1;fillColor=#004C99;strokeColor=#004C99;" vertex="1" parent="1">
          <mxGeometry x="60" y="503" width="15" height="30" as="geometry" />
        </mxCell>
        <mxCell id="4PF_jre6dExDxbK1LLWj-303" value="" style="rounded=0;whiteSpace=wrap;html=1;fillColor=#004C99;strokeColor=#004C99;" vertex="1" parent="1">
          <mxGeometry x="60" y="543" width="15" height="30" as="geometry" />
        </mxCell>
        <mxCell id="4PF_jre6dExDxbK1LLWj-304" value="" style="rounded=0;whiteSpace=wrap;html=1;fillColor=#004C99;strokeColor=#004C99;" vertex="1" parent="1">
          <mxGeometry x="60" y="593" width="15" height="30" as="geometry" />
        </mxCell>
        <mxCell id="4PF_jre6dExDxbK1LLWj-305" value="" style="rounded=0;whiteSpace=wrap;html=1;fillColor=#004C99;strokeColor=#004C99;" vertex="1" parent="1">
          <mxGeometry x="60" y="633" width="15" height="30" as="geometry" />
        </mxCell>
        <mxCell id="4PF_jre6dExDxbK1LLWj-306" value="" style="rounded=0;whiteSpace=wrap;html=1;fillColor=#004C99;strokeColor=#004C99;" vertex="1" parent="1">
          <mxGeometry x="60" y="673" width="15" height="30" as="geometry" />
        </mxCell>
        <mxCell id="4PF_jre6dExDxbK1LLWj-307" value="" style="rounded=0;whiteSpace=wrap;html=1;fillColor=#004C99;strokeColor=#004C99;" vertex="1" parent="1">
          <mxGeometry x="60" y="713" width="15" height="30" as="geometry" />
        </mxCell>
        <mxCell id="4PF_jre6dExDxbK1LLWj-308" value="" style="rounded=0;whiteSpace=wrap;html=1;fillColor=#004C99;strokeColor=#004C99;" vertex="1" parent="1">
          <mxGeometry x="860" y="83" width="15" height="30" as="geometry" />
        </mxCell>
        <mxCell id="4PF_jre6dExDxbK1LLWj-309" value="" style="rounded=0;whiteSpace=wrap;html=1;fillColor=#004C99;strokeColor=#004C99;" vertex="1" parent="1">
          <mxGeometry x="860" y="123" width="15" height="30" as="geometry" />
        </mxCell>
        <mxCell id="4PF_jre6dExDxbK1LLWj-310" value="" style="rounded=0;whiteSpace=wrap;html=1;fillColor=#004C99;strokeColor=#004C99;" vertex="1" parent="1">
          <mxGeometry x="860" y="163" width="15" height="30" as="geometry" />
        </mxCell>
        <mxCell id="4PF_jre6dExDxbK1LLWj-311" value="" style="rounded=0;whiteSpace=wrap;html=1;fillColor=#004C99;strokeColor=#004C99;" vertex="1" parent="1">
          <mxGeometry x="860" y="203" width="15" height="30" as="geometry" />
        </mxCell>
        <mxCell id="4PF_jre6dExDxbK1LLWj-312" value="" style="rounded=0;whiteSpace=wrap;html=1;fillColor=#004C99;strokeColor=#004C99;" vertex="1" parent="1">
          <mxGeometry x="860" y="253" width="15" height="30" as="geometry" />
        </mxCell>
        <mxCell id="4PF_jre6dExDxbK1LLWj-313" value="" style="rounded=0;whiteSpace=wrap;html=1;fillColor=#004C99;strokeColor=#004C99;" vertex="1" parent="1">
          <mxGeometry x="860" y="293" width="15" height="30" as="geometry" />
        </mxCell>
        <mxCell id="4PF_jre6dExDxbK1LLWj-314" value="" style="rounded=0;whiteSpace=wrap;html=1;fillColor=#004C99;strokeColor=#004C99;" vertex="1" parent="1">
          <mxGeometry x="860" y="333" width="15" height="30" as="geometry" />
        </mxCell>
        <mxCell id="4PF_jre6dExDxbK1LLWj-315" value="" style="rounded=0;whiteSpace=wrap;html=1;fillColor=#004C99;strokeColor=#004C99;" vertex="1" parent="1">
          <mxGeometry x="860" y="373" width="15" height="30" as="geometry" />
        </mxCell>
        <mxCell id="4PF_jre6dExDxbK1LLWj-316" value="" style="rounded=0;whiteSpace=wrap;html=1;fillColor=#004C99;strokeColor=#004C99;" vertex="1" parent="1">
          <mxGeometry x="860" y="423" width="15" height="30" as="geometry" />
        </mxCell>
        <mxCell id="4PF_jre6dExDxbK1LLWj-317" value="" style="rounded=0;whiteSpace=wrap;html=1;fillColor=#004C99;strokeColor=#004C99;" vertex="1" parent="1">
          <mxGeometry x="860" y="463" width="15" height="30" as="geometry" />
        </mxCell>
        <mxCell id="4PF_jre6dExDxbK1LLWj-318" value="" style="rounded=0;whiteSpace=wrap;html=1;fillColor=#004C99;strokeColor=#004C99;" vertex="1" parent="1">
          <mxGeometry x="860" y="503" width="15" height="30" as="geometry" />
        </mxCell>
        <mxCell id="4PF_jre6dExDxbK1LLWj-319" value="" style="rounded=0;whiteSpace=wrap;html=1;fillColor=#004C99;strokeColor=#004C99;" vertex="1" parent="1">
          <mxGeometry x="860" y="543" width="15" height="30" as="geometry" />
        </mxCell>
        <mxCell id="4PF_jre6dExDxbK1LLWj-320" value="" style="rounded=0;whiteSpace=wrap;html=1;fillColor=#004C99;strokeColor=#004C99;" vertex="1" parent="1">
          <mxGeometry x="860" y="593" width="15" height="30" as="geometry" />
        </mxCell>
        <mxCell id="4PF_jre6dExDxbK1LLWj-321" value="" style="rounded=0;whiteSpace=wrap;html=1;fillColor=#004C99;strokeColor=#004C99;" vertex="1" parent="1">
          <mxGeometry x="860" y="633" width="15" height="30" as="geometry" />
        </mxCell>
        <mxCell id="4PF_jre6dExDxbK1LLWj-322" value="" style="rounded=0;whiteSpace=wrap;html=1;fillColor=#004C99;strokeColor=#004C99;" vertex="1" parent="1">
          <mxGeometry x="860" y="673" width="15" height="30" as="geometry" />
        </mxCell>
        <mxCell id="4PF_jre6dExDxbK1LLWj-323" value="" style="rounded=0;whiteSpace=wrap;html=1;fillColor=#004C99;strokeColor=#004C99;" vertex="1" parent="1">
          <mxGeometry x="860" y="713" width="15" height="30" as="geometry" />
        </mxCell>
        <mxCell id="4PF_jre6dExDxbK1LLWj-324" value="" style="rounded=0;whiteSpace=wrap;html=1;fillColor=#004C99;strokeColor=#004C99;rotation=-90;" vertex="1" parent="1">
          <mxGeometry x="827.5" y="743" width="15" height="30" as="geometry" />
        </mxCell>
        <mxCell id="4PF_jre6dExDxbK1LLWj-325" value="" style="rounded=0;whiteSpace=wrap;html=1;fillColor=#004C99;strokeColor=#004C99;rotation=-90;" vertex="1" parent="1">
          <mxGeometry x="787.5" y="743" width="15" height="30" as="geometry" />
        </mxCell>
        <mxCell id="4PF_jre6dExDxbK1LLWj-326" value="" style="rounded=0;whiteSpace=wrap;html=1;fillColor=#004C99;strokeColor=#004C99;rotation=-90;" vertex="1" parent="1">
          <mxGeometry x="717.5" y="743" width="15" height="30" as="geometry" />
        </mxCell>
        <mxCell id="4PF_jre6dExDxbK1LLWj-327" value="" style="rounded=0;whiteSpace=wrap;html=1;fillColor=#004C99;strokeColor=#004C99;rotation=-90;" vertex="1" parent="1">
          <mxGeometry x="677.5" y="743" width="15" height="30" as="geometry" />
        </mxCell>
        <mxCell id="4PF_jre6dExDxbK1LLWj-328" value="" style="rounded=0;whiteSpace=wrap;html=1;fillColor=#004C99;strokeColor=#004C99;rotation=-90;" vertex="1" parent="1">
          <mxGeometry x="637.5" y="743" width="15" height="30" as="geometry" />
        </mxCell>
        <mxCell id="4PF_jre6dExDxbK1LLWj-329" value="" style="rounded=0;whiteSpace=wrap;html=1;fillColor=#004C99;strokeColor=#004C99;rotation=-90;" vertex="1" parent="1">
          <mxGeometry x="597.5" y="743" width="15" height="30" as="geometry" />
        </mxCell>
        <mxCell id="4PF_jre6dExDxbK1LLWj-330" value="" style="rounded=0;whiteSpace=wrap;html=1;fillColor=#004C99;strokeColor=#004C99;rotation=-90;" vertex="1" parent="1">
          <mxGeometry x="527.5" y="743" width="15" height="30" as="geometry" />
        </mxCell>
        <mxCell id="4PF_jre6dExDxbK1LLWj-331" value="" style="rounded=0;whiteSpace=wrap;html=1;fillColor=#004C99;strokeColor=#004C99;rotation=-90;" vertex="1" parent="1">
          <mxGeometry x="487.5" y="743" width="15" height="30" as="geometry" />
        </mxCell>
        <mxCell id="4PF_jre6dExDxbK1LLWj-332" value="" style="rounded=0;whiteSpace=wrap;html=1;fillColor=#004C99;strokeColor=#004C99;rotation=-90;" vertex="1" parent="1">
          <mxGeometry x="427.5" y="743" width="15" height="30" as="geometry" />
        </mxCell>
        <mxCell id="4PF_jre6dExDxbK1LLWj-333" value="" style="rounded=0;whiteSpace=wrap;html=1;fillColor=#004C99;strokeColor=#004C99;rotation=-90;" vertex="1" parent="1">
          <mxGeometry x="387.5" y="743" width="15" height="30" as="geometry" />
        </mxCell>
        <mxCell id="4PF_jre6dExDxbK1LLWj-334" value="" style="rounded=0;whiteSpace=wrap;html=1;fillColor=#004C99;strokeColor=#004C99;rotation=-90;" vertex="1" parent="1">
          <mxGeometry x="317.5" y="743" width="15" height="30" as="geometry" />
        </mxCell>
        <mxCell id="4PF_jre6dExDxbK1LLWj-335" value="" style="rounded=0;whiteSpace=wrap;html=1;fillColor=#004C99;strokeColor=#004C99;rotation=-90;" vertex="1" parent="1">
          <mxGeometry x="277.5" y="743" width="15" height="30" as="geometry" />
        </mxCell>
        <mxCell id="4PF_jre6dExDxbK1LLWj-336" value="" style="rounded=0;whiteSpace=wrap;html=1;fillColor=#004C99;strokeColor=#004C99;rotation=-90;" vertex="1" parent="1">
          <mxGeometry x="237.5" y="743" width="15" height="30" as="geometry" />
        </mxCell>
        <mxCell id="4PF_jre6dExDxbK1LLWj-337" value="" style="rounded=0;whiteSpace=wrap;html=1;fillColor=#004C99;strokeColor=#004C99;rotation=-90;" vertex="1" parent="1">
          <mxGeometry x="197.5" y="743" width="15" height="30" as="geometry" />
        </mxCell>
        <mxCell id="4PF_jre6dExDxbK1LLWj-338" value="" style="rounded=0;whiteSpace=wrap;html=1;fillColor=#004C99;strokeColor=#004C99;rotation=-90;" vertex="1" parent="1">
          <mxGeometry x="127.5" y="743" width="15" height="30" as="geometry" />
        </mxCell>
        <mxCell id="4PF_jre6dExDxbK1LLWj-339" value="" style="rounded=0;whiteSpace=wrap;html=1;fillColor=#004C99;strokeColor=#004C99;rotation=-90;" vertex="1" parent="1">
          <mxGeometry x="87.5" y="743" width="15" height="30" as="geometry" />
        </mxCell>
        <mxCell id="4PF_jre6dExDxbK1LLWj-340" value="" style="rounded=0;whiteSpace=wrap;html=1;fillColor=#004C99;strokeColor=#004C99;rotation=-90;" vertex="1" parent="1">
          <mxGeometry x="827.5" y="53" width="15" height="30" as="geometry" />
        </mxCell>
        <mxCell id="4PF_jre6dExDxbK1LLWj-341" value="" style="rounded=0;whiteSpace=wrap;html=1;fillColor=#004C99;strokeColor=#004C99;rotation=-90;" vertex="1" parent="1">
          <mxGeometry x="787.5" y="53" width="15" height="30" as="geometry" />
        </mxCell>
        <mxCell id="4PF_jre6dExDxbK1LLWj-342" value="" style="rounded=0;whiteSpace=wrap;html=1;fillColor=#004C99;strokeColor=#004C99;rotation=-90;" vertex="1" parent="1">
          <mxGeometry x="717.5" y="53" width="15" height="30" as="geometry" />
        </mxCell>
        <mxCell id="4PF_jre6dExDxbK1LLWj-343" value="" style="rounded=0;whiteSpace=wrap;html=1;fillColor=#004C99;strokeColor=#004C99;rotation=-90;" vertex="1" parent="1">
          <mxGeometry x="677.5" y="53" width="15" height="30" as="geometry" />
        </mxCell>
        <mxCell id="4PF_jre6dExDxbK1LLWj-344" value="" style="rounded=0;whiteSpace=wrap;html=1;fillColor=#004C99;strokeColor=#004C99;rotation=-90;" vertex="1" parent="1">
          <mxGeometry x="637.5" y="53" width="15" height="30" as="geometry" />
        </mxCell>
        <mxCell id="4PF_jre6dExDxbK1LLWj-345" value="" style="rounded=0;whiteSpace=wrap;html=1;fillColor=#004C99;strokeColor=#004C99;rotation=-90;" vertex="1" parent="1">
          <mxGeometry x="597.5" y="53" width="15" height="30" as="geometry" />
        </mxCell>
        <mxCell id="4PF_jre6dExDxbK1LLWj-346" value="" style="rounded=0;whiteSpace=wrap;html=1;fillColor=#004C99;strokeColor=#004C99;rotation=-90;" vertex="1" parent="1">
          <mxGeometry x="527.5" y="53" width="15" height="30" as="geometry" />
        </mxCell>
        <mxCell id="4PF_jre6dExDxbK1LLWj-347" value="" style="rounded=0;whiteSpace=wrap;html=1;fillColor=#004C99;strokeColor=#004C99;rotation=-90;" vertex="1" parent="1">
          <mxGeometry x="487.5" y="53" width="15" height="30" as="geometry" />
        </mxCell>
        <mxCell id="4PF_jre6dExDxbK1LLWj-348" value="" style="rounded=0;whiteSpace=wrap;html=1;fillColor=#004C99;strokeColor=#004C99;rotation=-90;" vertex="1" parent="1">
          <mxGeometry x="427.5" y="53" width="15" height="30" as="geometry" />
        </mxCell>
        <mxCell id="4PF_jre6dExDxbK1LLWj-349" value="" style="rounded=0;whiteSpace=wrap;html=1;fillColor=#004C99;strokeColor=#004C99;rotation=-90;" vertex="1" parent="1">
          <mxGeometry x="387.5" y="53" width="15" height="30" as="geometry" />
        </mxCell>
        <mxCell id="4PF_jre6dExDxbK1LLWj-350" value="" style="rounded=0;whiteSpace=wrap;html=1;fillColor=#004C99;strokeColor=#004C99;rotation=-90;" vertex="1" parent="1">
          <mxGeometry x="317.5" y="53" width="15" height="30" as="geometry" />
        </mxCell>
        <mxCell id="4PF_jre6dExDxbK1LLWj-351" value="" style="rounded=0;whiteSpace=wrap;html=1;fillColor=#004C99;strokeColor=#004C99;rotation=-90;" vertex="1" parent="1">
          <mxGeometry x="277.5" y="53" width="15" height="30" as="geometry" />
        </mxCell>
        <mxCell id="4PF_jre6dExDxbK1LLWj-352" value="" style="rounded=0;whiteSpace=wrap;html=1;fillColor=#004C99;strokeColor=#004C99;rotation=-90;" vertex="1" parent="1">
          <mxGeometry x="237.5" y="53" width="15" height="30" as="geometry" />
        </mxCell>
        <mxCell id="4PF_jre6dExDxbK1LLWj-353" value="" style="rounded=0;whiteSpace=wrap;html=1;fillColor=#004C99;strokeColor=#004C99;rotation=-90;" vertex="1" parent="1">
          <mxGeometry x="197.5" y="53" width="15" height="30" as="geometry" />
        </mxCell>
        <mxCell id="4PF_jre6dExDxbK1LLWj-354" value="" style="rounded=0;whiteSpace=wrap;html=1;fillColor=#004C99;strokeColor=#004C99;rotation=-90;" vertex="1" parent="1">
          <mxGeometry x="127.5" y="53" width="15" height="30" as="geometry" />
        </mxCell>
        <mxCell id="4PF_jre6dExDxbK1LLWj-355" value="" style="rounded=0;whiteSpace=wrap;html=1;fillColor=#004C99;strokeColor=#004C99;rotation=-90;" vertex="1" parent="1">
          <mxGeometry x="87.5" y="53" width="15" height="30" as="geometry" />
        </mxCell>
        <mxCell id="4PF_jre6dExDxbK1LLWj-356" value="" style="whiteSpace=wrap;html=1;aspect=fixed;fillColor=#779CD4;strokeColor=#779CD4;" vertex="1" parent="1">
          <mxGeometry x="920" y="123" width="30" height="30" as="geometry" />
        </mxCell>
        <mxCell id="4PF_jre6dExDxbK1LLWj-357" value="&lt;font style=&quot;font-size: 14px;&quot;&gt;$$\textbf{Slices}$$&lt;/font&gt;" style="text;html=1;align=center;verticalAlign=middle;whiteSpace=wrap;rounded=0;" vertex="1" parent="1">
          <mxGeometry x="950" y="120" width="70" height="40" as="geometry" />
        </mxCell>
        <mxCell id="4PF_jre6dExDxbK1LLWj-358" value="" style="rounded=0;whiteSpace=wrap;html=1;fillColor=#990099;strokeColor=#660066;" vertex="1" parent="1">
          <mxGeometry x="930" y="183" width="10" height="150" as="geometry" />
        </mxCell>
        <mxCell id="4PF_jre6dExDxbK1LLWj-359" value="&lt;font style=&quot;font-size: 14px;&quot;&gt;$$\textbf{Block RAM}$$&lt;/font&gt;" style="text;html=1;align=center;verticalAlign=middle;whiteSpace=wrap;rounded=0;" vertex="1" parent="1">
          <mxGeometry x="960" y="238" width="110" height="40" as="geometry" />
        </mxCell>
        <mxCell id="4PF_jre6dExDxbK1LLWj-360" value="" style="rounded=0;whiteSpace=wrap;html=1;fillColor=#A9C4EB;strokeColor=#A9C4EB;" vertex="1" parent="1">
          <mxGeometry x="930" y="373" width="10" height="150" as="geometry" />
        </mxCell>
        <mxCell id="4PF_jre6dExDxbK1LLWj-361" value="&lt;font style=&quot;font-size: 14px;&quot;&gt;$$\textbf{Dedicated Multiplier}$$&lt;/font&gt;" style="text;html=1;align=center;verticalAlign=middle;whiteSpace=wrap;rounded=0;" vertex="1" parent="1">
          <mxGeometry x="950" y="428" width="210" height="40" as="geometry" />
        </mxCell>
        <mxCell id="4PF_jre6dExDxbK1LLWj-362" value="" style="rounded=0;whiteSpace=wrap;html=1;fillColor=#660066;strokeColor=#660066;rotation=-90;" vertex="1" parent="1">
          <mxGeometry x="752.25" y="748.25" width="16" height="20.5" as="geometry" />
        </mxCell>
        <mxCell id="4PF_jre6dExDxbK1LLWj-363" value="" style="rounded=0;whiteSpace=wrap;html=1;fillColor=#660066;strokeColor=#660066;rotation=-90;" vertex="1" parent="1">
          <mxGeometry x="562.43" y="748.44" width="16" height="19.13" as="geometry" />
        </mxCell>
        <mxCell id="4PF_jre6dExDxbK1LLWj-364" value="" style="rounded=0;whiteSpace=wrap;html=1;fillColor=#660066;strokeColor=#660066;rotation=-90;" vertex="1" parent="1">
          <mxGeometry x="351.14" y="747.16" width="16" height="21.72" as="geometry" />
        </mxCell>
        <mxCell id="4PF_jre6dExDxbK1LLWj-366" value="" style="rounded=0;whiteSpace=wrap;html=1;fillColor=#660066;strokeColor=#660066;rotation=-90;" vertex="1" parent="1">
          <mxGeometry x="164" y="747.16" width="16" height="21.72" as="geometry" />
        </mxCell>
        <mxCell id="4PF_jre6dExDxbK1LLWj-367" value="" style="rounded=0;whiteSpace=wrap;html=1;fillColor=#660066;strokeColor=#660066;rotation=-90;" vertex="1" parent="1">
          <mxGeometry x="164" y="57.13999999999997" width="16" height="21.72" as="geometry" />
        </mxCell>
        <mxCell id="4PF_jre6dExDxbK1LLWj-368" value="" style="rounded=0;whiteSpace=wrap;html=1;fillColor=#660066;strokeColor=#660066;rotation=-90;" vertex="1" parent="1">
          <mxGeometry x="351.14" y="57.13999999999997" width="16" height="21.72" as="geometry" />
        </mxCell>
        <mxCell id="4PF_jre6dExDxbK1LLWj-369" value="" style="rounded=0;whiteSpace=wrap;html=1;fillColor=#660066;strokeColor=#660066;rotation=-90;" vertex="1" parent="1">
          <mxGeometry x="562.4300000000001" y="57.13999999999997" width="16" height="21.72" as="geometry" />
        </mxCell>
        <mxCell id="4PF_jre6dExDxbK1LLWj-370" value="" style="rounded=0;whiteSpace=wrap;html=1;fillColor=#660066;strokeColor=#660066;rotation=-90;" vertex="1" parent="1">
          <mxGeometry x="752.25" y="57.13999999999997" width="16" height="21.72" as="geometry" />
        </mxCell>
        <mxCell id="4PF_jre6dExDxbK1LLWj-372" value="&lt;font style=&quot;font-size: 14px;&quot;&gt;$$\textbf{I/O Block}$$&lt;/font&gt;" style="text;html=1;align=center;verticalAlign=middle;whiteSpace=wrap;rounded=0;" vertex="1" parent="1">
          <mxGeometry x="960" y="550.86" width="90" height="40" as="geometry" />
        </mxCell>
        <mxCell id="4PF_jre6dExDxbK1LLWj-373" value="" style="triangle;whiteSpace=wrap;html=1;rotation=-90;fillColor=#97D077;strokeColor=#97D077;" vertex="1" parent="1">
          <mxGeometry x="460.67" y="753.49" width="11.5" height="12.84" as="geometry" />
        </mxCell>
        <mxCell id="4PF_jre6dExDxbK1LLWj-374" value="" style="triangle;whiteSpace=wrap;html=1;rotation=-90;fillColor=#97D077;strokeColor=#97D077;" vertex="1" parent="1">
          <mxGeometry x="928.5" y="660.16" width="11.5" height="12.84" as="geometry" />
        </mxCell>
        <mxCell id="4PF_jre6dExDxbK1LLWj-375" value="" style="triangle;whiteSpace=wrap;html=1;rotation=90;fillColor=#97D077;strokeColor=#97D077;" vertex="1" parent="1">
          <mxGeometry x="460.67" y="61.579999999999984" width="11.5" height="12.84" as="geometry" />
        </mxCell>
        <mxCell id="4PF_jre6dExDxbK1LLWj-376" value="&lt;font style=&quot;font-size: 14px;&quot;&gt;$$\textbf{DCM}$$&lt;/font&gt;" style="text;html=1;align=center;verticalAlign=middle;whiteSpace=wrap;rounded=0;" vertex="1" parent="1">
          <mxGeometry x="960" y="646.58" width="50" height="40" as="geometry" />
        </mxCell>
        <mxCell id="4PF_jre6dExDxbK1LLWj-377" value="" style="rounded=0;whiteSpace=wrap;html=1;fillColor=#660066;strokeColor=#660066;rotation=-90;" vertex="1" parent="1">
          <mxGeometry x="927" y="743" width="16" height="21.72" as="geometry" />
        </mxCell>
        <mxCell id="4PF_jre6dExDxbK1LLWj-379" value="&lt;font style=&quot;font-size: 14px;&quot;&gt;$$\textbf{Clock Buffer}$$&lt;/font&gt;" style="text;html=1;align=center;verticalAlign=middle;whiteSpace=wrap;rounded=0;" vertex="1" parent="1">
          <mxGeometry x="960" y="733.86" width="110" height="40" as="geometry" />
        </mxCell>
        <mxCell id="4PF_jre6dExDxbK1LLWj-380" value="" style="rounded=0;whiteSpace=wrap;html=1;fillColor=#004C99;strokeColor=#004C99;" vertex="1" parent="1">
          <mxGeometry x="928" y="555.86" width="15" height="30" as="geometry" />
        </mxCell>
      </root>
    </mxGraphModel>
  </diagram>
</mxfile>
